<?xml version="1.0" standalone="no"?>
<!DOCTYPE svg PUBLIC "-//W3C//DTD SVG 20010904//EN"
 "http://www.w3.org/TR/2001/REC-SVG-20010904/DTD/svg10.dtd">
<svg version="1.0" xmlns="http://www.w3.org/2000/svg"
 width="1024.000000pt" height="1024.000000pt" viewBox="0 0 1024.000000 1024.000000"
 preserveAspectRatio="xMidYMid meet">
<metadata>
Created by potrace 1.16, written by Peter Selinger 2001-2019
</metadata>
<g transform="translate(0.000000,1024.000000) scale(0.100000,-0.100000)"
fill="#000000" stroke="none">
<path d="M4839 8959 c-29 -4 -63 -20 -92 -42 -50 -38 -100 -52 -159 -42 -31 5
-50 2 -91 -18 -29 -14 -91 -38 -139 -53 -75 -23 -91 -32 -107 -59 -23 -39
-136 -105 -180 -105 -21 0 -34 -7 -42 -22 -6 -13 -29 -41 -50 -63 -38 -40
-110 -188 -124 -257 -4 -18 -16 -48 -27 -66 -15 -25 -23 -62 -29 -145 -7 -97
-25 -404 -32 -548 -1 -34 -6 -45 -15 -41 -18 6 -98 -73 -125 -123 -25 -47 -29
-173 -8 -267 18 -81 116 -217 159 -218 6 0 12 -4 12 -9 0 -8 37 -24 53 -22 4
1 7 -3 7 -8 0 -4 12 -6 26 -3 17 3 25 1 21 -5 -7 -11 85 -9 103 2 10 6 32 -34
35 -65 3 -26 17 -64 46 -123 41 -85 53 -84 -296 -20 -63 11 -147 18 -227 18
-115 0 -129 -2 -143 -20 -9 -11 -13 -13 -9 -5 7 13 5 13 -15 -1 -13 -8 -37
-40 -53 -70 -16 -29 -37 -63 -47 -74 -10 -11 -26 -35 -36 -54 -14 -28 -14 -35
-3 -42 10 -7 9 -9 -4 -9 -11 0 -22 -17 -34 -52 -9 -29 -25 -69 -35 -89 -12
-24 -16 -48 -13 -70 5 -30 3 -35 -23 -45 -32 -12 -233 -3 -523 23 -241 21
-754 24 -855 4 -38 -7 -77 -19 -85 -25 -8 -7 -40 -23 -70 -36 -73 -33 -158
-94 -201 -145 -83 -97 -139 -198 -164 -296 -67 -258 -85 -373 -74 -487 5 -48
13 -145 19 -217 6 -71 15 -150 20 -175 5 -25 13 -72 19 -105 6 -33 20 -109 30
-170 11 -60 27 -153 36 -205 14 -82 52 -232 101 -400 15 -51 98 -287 140 -401
39 -101 185 -380 196 -373 5 4 8 -1 6 -9 -2 -9 0 -15 4 -14 11 3 59 -73 53
-84 -4 -5 -1 -9 5 -9 6 0 65 -56 131 -125 121 -125 300 -270 373 -303 22 -9
80 -38 130 -63 109 -55 402 -174 541 -219 55 -18 103 -35 107 -39 9 -8 -106
-198 -147 -244 -16 -18 -61 -73 -100 -122 -38 -48 -93 -115 -120 -149 -28 -34
-68 -87 -89 -119 -21 -32 -43 -60 -50 -63 -7 -3 -30 -29 -51 -59 -22 -30 -41
-52 -43 -50 -11 10 22 85 43 99 14 9 23 22 19 28 -4 7 -10 5 -16 -6 -5 -9 -16
-16 -23 -16 -8 0 -16 -4 -16 -10 -1 -5 -2 -14 -3 -18 -2 -16 -54 -71 -83 -89
-44 -27 -85 -79 -81 -104 2 -14 18 -30 40 -41 35 -18 46 -19 157 -9 125 12
232 38 209 53 -7 4 -22 8 -34 8 -31 0 -51 21 -57 60 -3 19 -3 29 0 22 3 -9 11
-3 24 17 10 17 24 31 30 31 8 0 8 4 -1 15 -10 12 -10 18 1 33 25 32 48 52 61
52 9 0 9 3 -1 13 -10 10 -2 22 41 60 29 27 46 45 38 41 -8 -5 -4 6 10 23 14
17 28 29 31 27 4 -2 10 6 13 19 3 12 19 38 36 57 17 19 49 57 73 84 63 75 231
257 264 289 l30 28 114 -25 c159 -34 291 -46 499 -46 l180 0 0 -25 c0 -14 9
-38 20 -53 19 -25 20 -34 10 -102 -20 -138 -28 -293 -16 -319 9 -21 14 -23 56
-17 25 4 82 10 128 13 76 6 83 8 88 29 3 13 10 21 15 18 5 -3 6 2 3 10 -3 9
-3 24 0 33 6 15 9 15 17 3 9 -12 10 -12 5 3 -3 10 4 57 15 105 12 48 26 104
31 125 21 88 40 -1 39 -189 -1 -95 2 -134 11 -142 7 -5 39 -12 72 -14 l58 -3
3 295 c1 162 3 302 4 311 1 14 17 17 114 18 126 2 407 17 572 32 61 5 153 12
205 15 l95 6 30 -29 c84 -83 188 -197 250 -273 38 -47 84 -101 101 -120 18
-19 50 -57 71 -85 43 -54 123 -132 165 -159 20 -13 27 -28 32 -68 8 -60 24
-94 69 -145 17 -20 27 -34 21 -30 -8 5 -9 -3 -5 -25 6 -27 13 -34 41 -41 l35
-8 -3 -82 -4 -82 289 -28 c359 -34 519 -41 701 -30 129 8 145 11 165 32 l22
23 -39 -16 c-45 -19 -49 -19 -41 -7 3 5 -8 3 -25 -5 -16 -9 -46 -14 -67 -11
l-38 4 43 1 c35 2 42 5 42 22 0 13 -7 20 -19 20 -14 0 -17 6 -14 25 4 19 16
28 55 41 27 9 48 18 46 19 -7 7 -104 -18 -125 -32 -12 -8 -27 -12 -34 -8 -8 5
-9 1 -5 -13 4 -11 2 -23 -3 -27 -7 -4 -8 1 -4 11 5 14 3 16 -12 11 -15 -6 -16
-5 -6 7 17 20 -3 30 -22 11 -13 -13 -17 -9 -36 30 -23 50 -28 78 -8 51 12 -16
13 -15 12 11 0 23 -5 29 -29 31 -18 2 -26 0 -21 -7 9 -15 -8 -14 -24 2 -6 6
-15 12 -19 13 -4 0 -20 6 -35 12 -16 7 -36 12 -46 12 -10 0 -24 7 -31 15 -7 8
-19 15 -26 15 -16 0 -19 16 -4 25 5 3 7 12 4 20 -3 8 2 15 13 18 10 3 1 3 -19
2 -21 -2 -38 1 -38 7 0 5 -5 6 -10 3 -7 -4 -6 -14 1 -28 10 -21 9 -21 -5 -3
-10 13 -14 31 -10 54 5 28 3 34 -9 29 -11 -4 -14 0 -10 16 5 21 4 21 -15 -2
-14 -17 -24 -22 -41 -16 -18 5 -20 9 -10 21 8 10 8 14 0 14 -6 0 -11 6 -11 14
0 16 42 46 64 46 8 0 32 16 53 35 21 19 33 35 26 35 -7 0 -10 7 -6 17 4 11 3
14 -5 9 -9 -6 -9 -1 0 18 12 28 22 30 111 27 l57 -3 0 30 c0 34 -18 133 -25
141 -11 11 -163 0 -243 -18 -95 -21 -138 -22 -134 -3 1 6 -4 11 -10 10 -7 -2
-14 8 -16 21 -2 13 -12 26 -23 28 -20 5 -27 23 -9 23 14 0 12 27 -2 33 -7 3
-2 6 12 7 21 1 22 3 7 9 -10 4 -19 11 -19 16 0 6 -4 16 -10 23 -14 16 13 17
29 1 9 -9 14 -5 19 15 5 22 9 24 21 14 11 -9 16 -9 23 1 6 11 9 11 14 0 6 -14
4 -1 -8 51 -3 14 -3 19 0 12 3 -6 11 -9 17 -5 6 4 22 7 36 7 13 1 26 8 29 16
4 12 2 13 -9 3 -20 -20 -39 -15 -40 10 -1 21 -1 21 -8 -3 -5 -17 -9 -21 -15
-12 -4 7 -12 10 -17 7 -5 -4 -9 1 -9 9 0 9 6 13 14 10 10 -4 14 2 12 20 -1 29
-16 36 -17 9 0 -15 -2 -15 -8 2 -10 25 -5 36 13 29 22 -8 28 13 16 50 -14 43
-65 69 -83 43 -5 -8 -7 -5 -5 7 2 10 -3 21 -9 23 -7 3 -13 -2 -13 -11 0 -9 -4
-16 -9 -16 -5 0 -7 9 -4 20 3 13 -1 22 -12 26 -13 5 -14 9 -4 15 8 4 18 1 26
-9 11 -15 12 -14 13 9 0 15 -7 29 -16 33 -8 3 -13 10 -9 16 12 20 -15 48 -53
55 -20 3 -44 11 -52 16 -12 8 -10 9 7 4 24 -7 42 13 23 25 -7 5 -20 5 -29 2
-14 -5 -14 -4 -2 12 16 19 15 20 -32 47 -10 6 -16 13 -13 16 3 4 15 -2 26 -12
20 -18 20 -18 20 20 0 29 -3 36 -15 31 -25 -9 -17 20 10 38 14 9 25 21 25 27
0 6 -7 3 -16 -6 -19 -18 -45 -16 -52 4 -3 10 0 12 12 8 20 -8 21 6 2 22 -12
10 -16 8 -21 -10 -6 -17 -9 -19 -16 -8 -7 12 -9 12 -9 0 0 -8 -2 -12 -5 -9 -3
3 -2 13 1 22 5 12 9 14 14 6 4 -7 12 1 20 21 11 25 11 34 2 37 -7 2 -12 14
-12 28 0 15 -5 22 -13 18 -10 -3 -13 4 -12 25 1 17 -2 28 -7 25 -4 -3 -8 5 -8
16 0 16 -5 20 -15 16 -8 -3 -15 0 -16 7 0 7 -2 23 -4 37 -1 14 3 31 9 39 6 8
7 12 1 9 -5 -3 -16 0 -23 8 -7 8 -8 14 -2 14 16 0 12 27 -5 34 -8 3 -12 12 -9
21 5 11 2 14 -10 9 -9 -3 -16 -1 -16 5 0 6 5 11 11 11 5 0 7 5 4 10 -4 6 -10
8 -15 5 -4 -3 -6 5 -2 17 3 14 1 19 -6 14 -6 -3 -13 -2 -16 3 -4 5 2 8 11 7
19 -2 131 -216 199 -378 20 -48 44 -94 54 -103 16 -14 21 -13 61 21 24 20 43
41 41 46 -1 5 14 22 33 39 19 17 34 34 33 37 -1 4 6 22 14 40 l14 33 28 -57
c68 -139 185 -303 351 -494 208 -239 275 -330 275 -373 0 -36 43 -141 75 -183
47 -62 55 -92 38 -154 -21 -79 -13 -144 22 -180 16 -17 35 -30 42 -30 8 0 11
-5 8 -11 -4 -5 -7 -41 -6 -80 0 -57 -2 -69 -16 -69 -11 0 -8 -6 11 -21 14 -11
24 -25 21 -30 -4 -5 1 -9 9 -9 32 0 128 -43 150 -67 15 -16 52 -33 111 -49
154 -44 189 -69 238 -174 17 -36 31 -66 32 -67 0 -1 64 -11 141 -23 76 -11
198 -29 269 -40 161 -26 293 -26 418 -1 102 21 212 16 227 -10 10 -15 165 -8
181 8 16 16 -49 46 -148 70 -37 9 -72 19 -76 23 -4 4 32 12 80 19 109 15 134
21 128 31 -5 9 -43 6 -235 -21 -215 -29 -503 -28 -484 2 3 5 -5 13 -18 18
l-23 10 25 2 c20 1 21 2 6 6 -11 3 -26 11 -33 19 -12 11 -9 15 18 22 l32 8
-44 14 c-24 8 -61 31 -82 52 -22 22 -44 35 -52 31 -8 -3 -15 -1 -15 3 0 5 -12
10 -28 11 -37 3 -164 58 -154 67 4 5 -12 7 -35 4 -44 -4 -46 7 -3 15 14 2 2 5
-27 6 -28 0 -59 4 -67 7 -12 5 -15 2 -10 -12 4 -14 3 -15 -3 -6 -6 7 -23 17
-39 22 -18 5 85 9 276 10 168 1 323 4 345 9 l40 7 -32 7 c-18 3 -33 10 -33 15
0 5 15 14 33 20 31 11 30 11 -18 9 -35 -1 -49 2 -47 11 1 6 -5 12 -14 12 -8 0
-13 4 -9 9 11 18 -38 24 -51 7 -11 -15 -12 -15 -18 0 -9 24 -7 31 5 14 9 -13
10 -13 6 0 -2 8 -11 14 -21 12 -9 -2 -16 2 -16 8 0 6 -4 9 -8 6 -5 -3 -15 6
-22 20 -8 14 -20 22 -27 19 -9 -3 -11 0 -7 7 5 8 1 9 -12 5 -15 -6 -14 -3 4
11 l23 18 -28 14 c-25 12 -26 14 -8 18 11 2 24 8 29 13 5 4 -7 4 -26 -1 -48
-14 -69 -9 -163 38 -5 3 -1 -4 9 -16 19 -22 19 -22 0 -19 -25 3 -94 46 -94 58
0 5 9 4 20 -3 11 -7 20 -16 20 -20 0 -5 7 -8 16 -8 13 0 14 3 5 14 -9 10 -5
23 16 55 22 34 32 41 50 37 12 -4 25 -2 28 4 3 5 -2 11 -12 11 -32 2 -47 -2
-59 -18 -6 -9 -16 -13 -21 -10 -13 8 -49 -30 -38 -41 4 -4 10 -1 12 6 3 6 9
12 15 12 6 0 6 -6 -2 -15 -16 -20 -22 -19 -51 6 -13 12 -31 26 -39 33 -21 16
-50 62 -50 81 0 8 -4 15 -10 15 -5 0 -10 8 -10 19 0 14 12 22 47 31 27 6 73
27 104 46 31 18 79 39 107 45 45 9 50 13 38 25 -8 8 -24 14 -35 14 -37 0 -32
19 11 46 24 15 44 28 46 29 2 2 0 19 -3 39 -7 32 -10 35 -34 31 -54 -10 -188
-23 -238 -23 -54 0 -76 13 -52 30 10 7 7 7 -8 3 -17 -5 -23 -2 -23 9 0 9 -6
16 -13 16 -18 0 -68 49 -62 61 4 5 13 9 21 9 8 0 14 5 14 10 0 6 11 10 25 10
18 0 23 4 19 15 -4 8 -2 15 4 15 6 0 12 -6 15 -12 3 -9 10 -7 21 7 17 23 22
60 5 50 -6 -4 -13 2 -16 14 -3 12 -11 21 -18 21 -7 0 -18 6 -25 14 -10 13 -7
13 22 3 18 -7 36 -16 40 -22 15 -20 8 43 -8 74 -12 23 -13 36 -6 43 14 14 -14
72 -29 62 -7 -4 -7 -10 0 -17 6 -6 11 -18 11 -26 -1 -27 -30 19 -31 48 0 14
-7 44 -14 66 l-14 40 4 -67 c3 -68 -9 -98 -13 -34 -1 19 -9 52 -17 73 -13 38
-14 38 -14 8 l-1 -30 -14 27 c-8 15 -16 39 -18 53 -2 14 -6 25 -10 25 -14 0
-48 39 -48 55 0 8 6 15 13 15 7 0 8 3 2 8 -6 4 -15 21 -21 37 -7 22 -16 29
-32 28 -15 -2 -20 2 -16 11 3 8 -1 30 -10 48 -8 18 -16 42 -18 53 -2 11 -17
26 -33 34 l-30 15 25 7 c14 4 21 8 15 9 -5 1 -14 3 -20 5 -5 1 -16 3 -22 3 -7
1 -13 7 -13 13 0 6 9 9 20 6 25 -6 26 8 1 25 -18 13 -20 17 -22 41 0 6 -4 3
-9 -8 -7 -18 -8 -18 -15 7 -4 16 -5 34 -2 42 3 8 -1 17 -10 20 -10 4 -13 14
-9 30 4 16 0 30 -10 40 -8 9 -13 20 -9 26 3 6 -1 7 -9 4 -11 -4 -16 0 -16 14
0 11 -8 23 -19 27 -10 3 -27 15 -37 28 -16 19 -17 20 -1 8 27 -21 35 -2 9 20
-14 11 -21 23 -16 31 4 7 4 10 0 6 -12 -10 -44 25 -34 38 5 7 2 16 -7 24 -8 7
-15 19 -15 27 0 8 -8 13 -17 11 -14 -2 -18 3 -16 25 1 18 -3 27 -13 27 -8 0
-14 5 -14 10 0 16 33 11 58 -9 12 -11 22 -22 22 -25 0 -4 16 -30 35 -59 20
-28 40 -59 45 -67 5 -8 20 -31 33 -50 13 -19 36 -60 53 -90 16 -30 37 -64 46
-74 10 -10 16 -22 14 -25 -6 -9 23 -46 29 -39 6 6 -40 99 -54 108 -4 3 -16 26
-26 53 -10 26 -28 58 -41 72 -13 14 -23 26 -22 28 1 1 -10 21 -25 43 -14 23
-33 58 -41 78 -8 20 -20 36 -25 36 -6 0 -8 6 -5 13 2 7 -15 36 -39 64 -24 28
-60 72 -79 99 -20 27 -59 69 -87 92 -28 24 -49 47 -46 52 3 5 -9 12 -27 16
-31 6 -32 7 -11 15 13 5 76 9 140 9 65 0 134 1 153 1 55 1 292 29 306 37 34
19 96 87 110 120 41 99 114 446 278 1332 66 359 92 605 64 627 -8 7 -87 17
-178 23 -91 6 -194 15 -230 20 -36 5 -141 11 -235 15 -93 3 -224 11 -290 17
-66 6 -142 12 -170 13 -119 6 -365 26 -416 35 -30 6 -88 10 -128 10 -40 0
-100 7 -134 16 -40 10 -77 13 -110 9 -74 -11 -136 -12 -139 -3 -2 4 -23 10
-48 13 -32 4 -39 3 -25 -4 17 -8 15 -10 -13 -10 -44 -1 -75 -18 -68 -37 3 -8
1 -12 -4 -9 -11 7 -16 -13 -26 -100 -4 -33 -9 -69 -11 -80 -1 -11 -3 -39 -4
-63 0 -26 -5 -40 -11 -36 -7 4 -8 -8 -3 -35 4 -27 3 -47 -5 -56 -6 -8 -9 -23
-5 -34 3 -10 1 -22 -4 -26 -6 -3 -10 -20 -10 -38 0 -18 -9 -63 -20 -102 -12
-38 -21 -81 -21 -94 0 -14 -4 -38 -9 -55 -6 -17 -15 -71 -21 -121 -15 -126
-40 -258 -49 -268 -5 -5 -16 8 -25 27 -9 20 -20 36 -24 36 -4 0 -20 27 -37 60
-16 33 -35 60 -43 60 -7 0 -21 19 -32 43 -39 84 -124 217 -140 217 -5 0 -12
11 -16 25 -3 14 -21 38 -40 55 -19 16 -34 34 -34 40 0 5 -7 10 -15 10 -8 0
-15 -3 -15 -7 0 -14 52 -73 61 -68 5 4 6 -2 2 -11 -5 -14 -3 -16 11 -11 10 4
15 3 11 -3 -3 -5 22 -47 56 -92 33 -46 65 -94 70 -107 5 -13 44 -73 86 -134
42 -60 91 -140 109 -176 35 -71 35 -71 48 24 12 87 35 225 55 320 11 55 27
150 36 210 9 61 22 144 30 185 8 41 22 129 30 195 23 184 34 225 62 236 15 5
72 5 146 -1 67 -6 419 -31 782 -55 363 -25 721 -49 795 -55 74 -5 189 -13 254
-16 107 -6 122 -9 143 -30 28 -28 28 -44 3 -136 -11 -40 -20 -86 -20 -103 0
-17 -5 -36 -12 -43 -7 -7 -9 -12 -6 -12 3 0 -1 -26 -9 -57 -8 -32 -16 -74 -18
-93 -6 -70 -18 -145 -25 -150 -4 -3 -15 -57 -25 -120 -9 -63 -20 -126 -22
-140 -3 -14 -11 -63 -18 -110 -8 -47 -17 -96 -20 -110 -3 -14 -9 -53 -12 -88
-3 -34 -10 -65 -14 -68 -5 -3 -9 -23 -9 -44 0 -21 -4 -40 -9 -42 -6 -1 -11
-15 -13 -30 -2 -15 -7 -30 -11 -34 -4 -4 -7 -27 -7 -50 0 -24 -4 -45 -9 -48
-9 -6 -17 -60 -28 -173 -3 -35 -9 -63 -14 -63 -5 0 -9 -15 -10 -32 0 -44 -22
-135 -41 -178 -9 -19 -30 -47 -47 -63 -17 -15 -31 -31 -31 -36 0 -14 -50 -29
-117 -36 -75 -8 -255 5 -208 15 26 6 23 7 -25 13 -191 22 -491 29 -815 18
-187 -7 -389 -12 -450 -12 -60 0 -155 -1 -210 -1 -114 -1 -165 4 -165 14 0 4
-7 5 -15 2 -8 -4 -15 -1 -15 6 0 6 -4 9 -9 6 -5 -3 -12 1 -15 10 -11 28 -6 65
9 70 12 5 10 10 -9 25 -29 23 -36 24 -36 4 0 -10 -10 -15 -29 -15 -24 0 -28 4
-24 19 6 22 93 37 105 18 4 -7 8 5 8 26 0 25 -4 37 -14 37 -9 0 -12 -7 -9 -20
5 -20 1 -22 -79 -35 -20 -3 -39 -1 -42 4 -4 5 -14 10 -24 10 -19 0 -69 12
-187 48 -143 42 -206 49 -278 28 -34 -10 -78 -26 -97 -35 -35 -17 -148 -48
-205 -56 -16 -3 -88 -5 -160 -5 -118 -1 -137 1 -205 26 -41 15 -85 34 -97 42
-12 8 -27 12 -33 8 -5 -3 -10 1 -10 10 0 10 -4 13 -12 8 -14 -8 -15 -8 -108
-23 -109 -18 -712 -25 -879 -11 -80 7 -159 17 -176 22 -54 16 -248 41 -330 44
-44 1 -92 5 -106 9 -18 5 -29 3 -40 -10 -13 -15 -14 -15 -20 7 -7 23 -7 23 -8
2 -1 -12 -6 -25 -12 -29 -14 -8 -4 220 11 245 5 9 10 12 10 6 0 -5 4 -4 9 3
18 30 861 20 1140 -13 131 -15 549 -50 708 -59 79 -5 91 -3 86 9 -4 11 -1 13
11 9 9 -3 16 -12 16 -18 0 -9 13 -11 42 -7 42 6 43 6 50 54 12 89 29 458 23
516 -17 160 -18 167 -26 141 -7 -25 -7 -25 -8 -2 -1 13 -5 20 -11 17 -5 -3
-10 0 -11 7 -1 7 -5 2 -10 -12 -8 -23 -8 -22 -5 7 1 18 0 30 -3 27 -6 -5 -30
88 -31 119 0 11 4 15 11 11 7 -4 9 0 5 13 -4 13 -2 20 8 20 8 0 14 -3 14 -6
-1 -3 4 -17 10 -31 17 -39 14 -2 -8 82 -10 42 -32 103 -48 135 -16 32 -42 90
-57 130 -15 40 -40 87 -55 105 -23 27 -35 33 -73 34 -63 2 -210 78 -322 167
-66 52 -182 134 -273 194 -63 41 -121 82 -131 91 -9 9 -40 33 -69 52 -40 27
-52 41 -52 61 0 26 -27 59 -48 59 -7 0 -12 4 -12 9 0 5 -10 13 -22 17 -13 3
-35 15 -51 26 -32 23 -131 36 -141 19 -4 -6 -15 -11 -25 -11 -10 0 -21 -9 -24
-20 -3 -11 -10 -20 -17 -20 -6 0 -9 4 -5 9 3 5 1 12 -5 16 -5 3 -10 1 -10 -4
0 -14 -77 -14 -85 -1 -5 8 -12 7 -22 -2 -13 -11 -13 -7 2 22 l18 35 -22 -19
c-11 -11 -21 -15 -21 -10 0 11 68 116 80 124 4 3 15 19 24 37 19 37 54 48 138
40 29 -3 116 -10 193 -16 249 -21 492 -70 465 -94 -3 -2 -68 6 -145 18 -387
64 -482 76 -437 58 7 -3 17 -16 23 -30 5 -13 13 -21 19 -18 5 3 10 -1 10 -10
0 -9 5 -13 10 -10 6 3 16 3 22 -2 7 -4 25 -6 40 -4 38 4 118 -40 243 -134 161
-120 159 -119 177 -98 9 10 25 45 36 78 12 33 21 54 22 46 0 -24 -40 -150 -50
-156 -6 -4 -7 -11 -4 -17 4 -7 2 -8 -5 -4 -6 4 -8 12 -5 18 4 7 2 8 -5 4 -6
-4 -19 -2 -28 6 -14 11 -15 11 -11 -2 2 -8 47 -42 99 -77 184 -120 230 -157
345 -275 93 -95 127 -123 168 -139 79 -30 121 -26 162 15 l34 34 34 -32 c65
-60 129 -152 183 -266 96 -201 143 -349 162 -508 12 -98 -1 -420 -23 -552 -8
-47 -13 -86 -11 -88 1 -1 33 -5 71 -8 38 -3 131 -21 207 -40 76 -19 145 -34
155 -34 49 0 100 -25 145 -71 35 -37 54 -49 77 -49 26 0 30 4 35 38 4 20 13
72 22 115 17 89 13 115 -6 35 -18 -82 -20 -83 -83 -33 -40 31 -56 51 -55 66 2
26 69 67 117 71 28 3 35 -1 41 -22 l7 -25 1 28 c1 15 -4 27 -11 27 -9 0 -9 3
0 12 7 7 12 25 12 40 0 21 -5 28 -19 28 -11 0 -22 -6 -24 -12 -4 -10 -6 -10
-6 -1 -1 9 -13 11 -39 7 -28 -4 -42 0 -59 15 -12 12 -30 21 -40 22 -11 0 -13
3 -5 6 6 2 12 9 12 14 0 5 -6 8 -12 6 -7 -1 -12 4 -11 11 2 6 -2 12 -8 12 -6
0 -17 6 -24 14 -12 12 -12 16 0 26 8 7 12 17 8 24 -4 6 -8 13 -9 16 0 3 -6 19
-13 35 -41 103 -61 167 -68 220 l-7 60 -6 -45 c-3 -29 -10 -44 -17 -43 -14 3
-15 -8 -15 -122 0 -38 -2 -64 -5 -57 -4 10 -9 9 -19 -5 -13 -17 -14 -17 -8 0
4 12 2 17 -7 15 -10 -2 -15 12 -19 47 l-5 50 -11 -41 c-13 -48 -13 -85 0 -83
10 1 26 -21 26 -36 0 -5 -4 -4 -9 4 -12 19 -31 -44 -26 -92 2 -22 -2 -43 -10
-51 -8 -7 -15 -33 -18 -57 -2 -24 -4 20 -5 99 -2 116 1 147 14 167 10 15 14
34 10 49 -3 13 -13 75 -21 137 -22 159 -31 202 -81 382 -48 169 -60 202 -82
229 -13 15 -11 18 12 24 15 3 39 3 54 0 15 -4 34 -8 42 -9 9 -2 22 -7 30 -12
10 -5 8 -1 -3 12 -18 20 -18 21 -1 25 12 2 2 11 -31 28 -27 14 -56 31 -63 38
-7 6 -16 12 -20 12 -11 0 -58 -43 -70 -65 -11 -19 -11 -18 -12 8 0 18 -5 27
-16 27 -12 0 -15 6 -10 25 6 23 4 25 -28 25 -39 0 -46 14 -46 98 0 29 -4 60
-9 70 -36 68 -95 232 -87 240 4 3 66 5 101 2 11 -1 14 -4 8 -7 -18 -7 -16 -16
5 -30 17 -10 19 -7 20 35 0 26 -5 50 -11 54 -18 11 11 10 55 -2 20 -6 48 -25
63 -42 28 -33 43 -32 25 2 -6 12 -14 19 -17 16 -14 -13 -34 35 -28 65 4 17 10
28 13 25 7 -8 121 112 171 179 21 28 55 79 76 115 22 36 45 73 53 82 14 17 16
17 28 0 16 -21 18 -11 3 21 -15 34 24 167 52 174 10 3 19 10 19 15 0 5 5 6 10
3 6 -3 10 -1 10 5 0 6 5 8 11 4 6 -3 24 9 41 27 17 19 24 25 17 14 -13 -18
-13 -19 4 -6 9 7 17 23 17 35 0 17 2 18 10 6 8 -12 10 -12 16 3 3 9 4 26 1 37
-3 11 -1 18 3 15 10 -6 24 31 16 44 -3 5 1 11 9 15 8 3 15 11 15 18 0 9 -3 8
-10 -2 -6 -9 -10 -10 -10 -3 0 6 7 18 15 27 9 8 15 19 15 23 -3 16 17 12 35
-7 20 -22 45 -29 27 -7 -12 14 -18 124 -8 148 7 15 -6 31 -43 54 -10 5 -46 29
-80 52 -34 23 -67 43 -73 45 -6 2 -15 35 -19 73 -9 73 11 235 32 261 6 7 7 19
3 25 -4 8 -3 9 4 5 11 -6 14 0 11 20 0 4 3 10 8 13 12 9 40 71 48 104 3 16 18
47 32 70 15 23 26 47 26 54 0 7 4 10 8 8 13 -9 29 50 51 185 31 201 34 284 9
367 -35 116 -118 223 -206 263 -47 21 -183 41 -232 33 -47 -8 -340 16 -408 32
-33 8 -73 16 -90 18 -16 2 -41 10 -55 19 -43 28 -121 45 -171 37z m511 -120
c47 1 112 -3 145 -7 l60 -8 -55 -13 c-44 -10 -106 -29 -117 -36 -1 0 22 -28
53 -60 56 -61 98 -135 108 -192 7 -43 -13 -44 -45 -2 -43 56 -71 85 -65 67 3
-11 1 -15 -7 -12 -14 5 -77 99 -77 114 0 5 -4 10 -10 10 -5 0 -9 4 -7 8 1 4
-14 27 -33 51 -30 37 -57 54 -130 85 -8 3 10 4 40 1 30 -3 93 -6 140 -6z m465
-63 c29 -20 55 -46 58 -57 4 -17 3 -18 -9 -8 -18 15 -18 5 0 -24 8 -12 17 -33
20 -47 l7 -25 -20 24 -21 23 6 -33 6 -34 -19 28 c-11 15 -23 24 -26 20 -4 -3
-17 2 -28 13 -21 19 -22 19 -16 -1 3 -11 9 -33 12 -50 6 -29 6 -29 -9 -10 -8
11 -20 26 -26 33 -6 6 -8 12 -4 12 3 0 -4 9 -17 19 -13 11 -25 18 -27 17 -1
-2 7 -23 18 -47 30 -67 26 -113 -7 -71 -7 9 -13 13 -12 7 4 -30 4 -30 -73 42
-15 15 -31 42 -34 62 -4 20 -10 43 -14 51 -5 9 -4 23 1 33 10 16 12 16 41 -4
l30 -22 -11 21 c-10 18 -9 22 4 22 8 0 15 5 15 11 0 5 4 8 8 5 4 -2 14 -1 22
4 12 7 12 10 -3 16 -31 12 -8 22 33 14 23 -4 65 -24 95 -44z m-1795 -241 c0
-9 -45 -100 -53 -106 -4 -3 -8 -46 -8 -97 l-2 -91 -50 -11 c-27 -6 -52 -8 -54
-6 -15 14 74 218 122 280 24 31 45 46 45 31z m1090 -449 c30 -9 71 -16 90 -16
24 0 42 -8 57 -24 16 -17 39 -26 80 -31 33 -4 69 -16 86 -28 24 -19 42 -22
115 -22 74 0 92 -3 118 -22 71 -51 94 -125 94 -305 0 -71 -2 -128 -4 -128 -3
0 -20 9 -38 19 -22 13 -63 21 -126 26 l-93 7 -40 -42 -41 -43 7 -70 c7 -64 6
-69 -10 -63 -10 3 -48 11 -84 16 -59 8 -72 14 -112 53 l-46 44 20 27 c21 29
30 130 12 132 -5 0 -17 3 -25 6 -120 42 -221 58 -370 58 -97 0 -110 -2 -170
-31 -83 -39 -108 -62 -102 -94 3 -19 -1 -25 -19 -29 -30 -6 -219 -13 -219 -8
0 2 34 55 75 117 l75 112 1 79 c1 79 18 150 35 148 15 -3 44 22 36 31 -4 5 -1
5 7 0 7 -4 16 -3 20 2 16 24 174 84 256 97 57 9 260 -3 315 -18z m-595 -675
c3 -11 18 -37 33 -58 23 -33 27 -51 32 -134 5 -85 8 -100 33 -133 38 -49 89
-82 178 -113 105 -37 187 -37 262 2 58 29 91 69 133 160 23 51 43 66 74 59 45
-10 58 -30 62 -103 3 -55 9 -76 35 -117 74 -114 144 -158 256 -159 48 0 67 -4
67 -13 0 -35 -71 -207 -102 -247 -4 -5 -39 -50 -77 -100 -127 -165 -242 -274
-255 -242 -2 7 -5 4 -5 -6 -1 -10 -5 -16 -10 -12 -5 3 -13 0 -17 -6 -9 -15
-93 -5 -163 20 -61 21 -138 79 -195 145 -81 96 -150 194 -173 246 -13 30 -28
63 -33 72 -6 10 -10 41 -10 69 0 43 -4 55 -28 77 -15 15 -44 50 -64 77 -32 44
-86 95 -123 117 -16 10 -83 12 -116 4 -18 -4 -33 0 -50 15 -20 17 -21 23 -11
39 7 11 12 33 12 50 0 40 34 106 63 122 26 15 79 35 127 50 19 5 40 14 47 20
7 5 17 7 22 4 18 -12 22 13 6 44 -11 22 -23 30 -43 31 l-27 1 25 8 c22 7 21 8
-13 9 -47 1 -40 21 8 21 24 0 35 -5 40 -19z m441 -22 c19 -11 43 -34 55 -50
16 -24 28 -29 59 -29 31 0 43 -5 56 -25 24 -37 21 -83 -12 -180 -37 -112 -49
-120 -164 -119 -98 1 -172 24 -234 76 -66 54 -81 118 -46 189 l21 40 32 -47
c43 -64 76 -86 135 -92 44 -4 51 -2 62 18 20 37 16 87 -8 120 -30 40 -12 38
32 -3 25 -24 37 -46 42 -77 6 -39 8 -41 21 -24 11 15 16 100 5 89 -2 -2 -17
12 -33 30 -41 47 -110 85 -153 85 -40 0 -49 16 -13 23 40 9 109 -3 143 -24z
m-1109 -61 c26 -13 33 -34 21 -66 -17 -49 25 -169 71 -203 31 -23 40 -39 21
-39 -6 0 -24 -10 -40 -21 -24 -18 -36 -20 -77 -14 -26 4 -56 15 -65 25 -9 10
-21 20 -25 21 -7 4 -33 53 -64 124 -5 11 -11 43 -13 72 -7 102 72 149 171 101z
m1738 -98 c10 -11 30 -56 44 -101 15 -44 31 -79 36 -77 6 2 15 -24 21 -57 l12
-60 1 80 c1 90 13 121 35 93 7 -10 24 -19 37 -20 21 -3 24 2 31 42 4 25 4 57
2 73 -5 21 -2 27 13 27 24 0 37 -11 41 -32 4 -23 -35 -178 -49 -194 -6 -7 -8
-22 -4 -34 4 -13 1 -22 -9 -26 -9 -3 -16 -12 -16 -19 0 -7 -23 -28 -52 -45
-47 -29 -58 -32 -113 -28 -105 9 -184 66 -220 161 -17 46 -17 88 0 88 6 0 14
-14 19 -31 12 -39 47 -64 80 -56 52 13 81 152 43 209 -17 27 -17 27 6 27 13 0
32 -9 42 -20z m-2137 -874 c54 -18 60 -24 40 -44 -15 -15 -224 -17 -233 -1 -4
5 0 18 9 28 9 10 16 22 16 28 0 16 107 9 168 -11z m-713 -241 c116 -8 264 -15
330 -15 124 0 137 -3 148 -32 7 -19 -26 -48 -54 -48 -26 0 -168 -78 -198 -109
-20 -20 -33 -26 -47 -20 -11 4 -35 5 -54 2 -19 -3 -42 -4 -50 -3 -57 5 -165
-1 -168 -10 -2 -5 -13 -10 -23 -10 -37 0 -124 -54 -114 -70 3 -4 -2 -13 -10
-20 -8 -7 -15 -22 -15 -34 0 -12 -5 -27 -10 -32 -6 -6 -12 -24 -14 -40 -11
-89 -20 -263 -22 -444 -2 -113 -6 -232 -9 -265 -3 -33 -8 -90 -11 -127 -4 -38
-10 -68 -15 -68 -5 0 -9 -11 -9 -25 0 -14 -4 -25 -10 -25 -5 0 -10 -13 -10
-30 0 -30 -20 -115 -39 -163 -6 -16 -11 -39 -11 -53 0 -14 -7 -35 -15 -47 -8
-12 -21 -49 -28 -82 -8 -33 -20 -73 -26 -88 -6 -16 -8 -33 -5 -39 4 -7 2 -8
-4 -4 -7 4 -13 0 -13 -11 -3 -44 -7 -62 -26 -118 -20 -58 -36 -128 -48 -207
-3 -21 -10 -38 -16 -38 -9 0 -6 -250 4 -315 9 -53 54 -203 77 -252 53 -116 67
-139 146 -236 8 -10 12 -22 9 -27 -3 -4 4 -6 16 -3 13 4 1 -14 -37 -51 -31
-32 -60 -54 -63 -49 -3 4 -16 13 -28 20 -17 10 -23 10 -27 0 -4 -7 -4 -2 -2
10 2 13 -1 20 -8 17 -15 -5 -31 6 -45 34 -7 12 -17 20 -23 16 -6 -4 -8 1 -3
15 5 16 3 20 -9 15 -9 -3 -16 -1 -16 5 0 13 -14 32 -42 59 -10 9 -18 22 -18
28 0 7 -17 25 -37 41 -21 15 -39 34 -41 42 -6 28 -44 72 -61 69 -16 -3 -22 8
-14 29 2 6 -5 28 -17 50 -68 125 -80 149 -80 161 0 7 -7 15 -15 18 -8 4 -15
14 -15 23 0 9 -7 25 -15 35 -8 11 -15 31 -15 45 0 18 -3 22 -9 13 -6 -10 -10
-9 -14 7 -3 12 -1 19 3 16 4 -3 6 4 3 15 -3 11 -8 20 -12 20 -4 0 -15 31 -25
70 -11 43 -22 67 -29 63 -7 -4 -8 0 -3 12 4 11 2 22 -5 26 -7 4 -13 16 -14 26
0 10 -4 23 -7 28 -11 19 -58 174 -58 192 0 13 -3 15 -8 5 -12 -18 -35 62 -27
91 4 15 3 18 -3 8 -12 -16 -53 200 -47 244 4 27 4 27 -3 5 -8 -23 -9 -21 -15
18 -4 24 -5 47 -2 52 3 4 2 10 -2 12 -14 6 -55 236 -49 270 5 26 4 29 -4 13
-8 -15 -9 -9 -6 29 2 32 1 44 -6 35 -6 -10 -8 -5 -6 16 1 17 0 35 -4 40 -16
28 -33 241 -32 425 0 154 5 224 17 280 23 102 19 144 -4 50 -23 -93 -43 -340
-34 -440 27 -322 65 -589 114 -802 11 -46 22 -105 26 -133 4 -27 15 -80 26
-116 24 -85 23 -100 -2 -29 -11 30 -35 129 -53 220 -19 91 -39 178 -45 193 -6
16 -8 33 -5 39 4 7 2 8 -4 4 -11 -7 -18 33 -13 72 1 6 -3 12 -9 12 -5 0 -10 8
-10 18 0 14 2 15 10 2 8 -12 10 -11 10 7 0 12 -4 24 -9 27 -4 3 -7 18 -5 33 4
24 3 25 -5 8 -7 -14 -9 -3 -6 40 3 48 2 53 -4 25 -9 -33 -9 -32 -10 20 -2 103
-6 135 -18 145 -7 6 -13 40 -15 77 -2 36 -6 64 -10 61 -5 -2 -8 23 -8 56 0 34
-4 61 -10 61 -6 0 -10 28 -11 63 0 34 -4 85 -8 112 l-7 50 -13 -74 c-18 -99
-16 -290 3 -485 9 -87 15 -161 12 -163 -5 -5 -13 32 -21 107 -4 30 -13 82 -21
115 -24 106 -28 277 -10 410 28 198 75 312 189 458 34 44 155 128 231 162 48
21 174 49 261 59 75 8 620 -4 830 -19z m972 -97 c104 -43 194 -90 224 -116 37
-32 119 -177 119 -210 0 -31 64 -55 165 -59 50 -2 97 -7 105 -10 8 -3 33 -6
55 -8 68 -3 149 -17 162 -27 7 -6 33 -12 59 -13 25 -2 47 -5 50 -8 2 -2 20
-49 39 -103 42 -124 44 -113 4 33 -16 63 -28 120 -25 126 2 7 5 4 5 -5 1 -10
6 -18 12 -18 5 0 7 -5 3 -12 -5 -8 -2 -9 10 -5 23 9 33 -17 93 -234 l48 -174
0 -250 c0 -239 -11 -514 -20 -524 -3 -2 -5 7 -6 20 0 22 -1 23 -9 4 -8 -18 -9
-18 -9 5 -1 14 3 40 8 58 7 22 6 36 -2 44 -12 14 -13 55 -8 396 2 101 0 186
-3 189 -3 4 -6 -28 -6 -69 0 -121 -9 -164 -36 -177 -18 -8 -22 -7 -18 2 2 7
-3 13 -13 14 -300 27 -282 24 -315 55 -17 16 -45 36 -61 44 -23 12 -28 21 -24
39 2 14 1 22 -4 20 -4 -3 -11 9 -15 27 -6 29 -8 30 -15 13 -7 -19 -8 -19 -8
-1 -1 10 -9 25 -18 33 -16 13 -16 13 7 7 24 -6 24 -5 6 8 -10 8 -16 19 -13 25
4 6 0 19 -8 29 -8 10 -15 22 -15 25 0 17 58 18 152 4 209 -30 278 -36 296 -26
13 8 5 10 -33 11 -156 1 -509 89 -489 122 5 8 2 9 -9 5 -12 -5 -17 -1 -17 13
0 18 2 18 36 4 48 -20 52 -13 9 20 -19 15 -39 41 -44 59 -5 18 -10 24 -10 14
-2 -33 -21 -7 -21 29 0 19 -4 34 -9 34 -6 0 -12 15 -14 33 -2 17 -5 -32 -5
-110 -2 -131 -3 -142 -19 -136 -16 6 -16 5 -4 -10 12 -15 11 -17 -10 -18 -13
0 -18 -3 -11 -6 26 -10 11 -29 -23 -28 -25 1 -35 -3 -36 -14 -1 -9 -7 27 -15
79 -7 52 -11 101 -9 108 2 6 0 12 -5 12 -5 0 -9 12 -8 28 1 40 -39 263 -58
318 -31 93 -66 153 -114 198 -53 50 -96 65 -185 67 -50 1 -55 3 -30 10 37 10
124 3 162 -13z m-23 -147 c73 -34 151 -174 150 -271 -1 -82 -24 -280 -47 -410
-11 -63 -21 -131 -22 -150 -1 -19 -7 -45 -14 -57 -9 -17 -9 -23 0 -23 8 0 8
-4 1 -12 -12 -17 -22 -157 -11 -164 21 -13 -16 -129 -47 -147 -8 -4 -14 -13
-14 -19 0 -6 7 -5 17 3 15 13 15 12 2 -8 -7 -12 -25 -25 -40 -28 -32 -7 -129
2 -164 15 -15 6 -36 10 -48 10 -12 0 -35 7 -51 15 -15 8 -34 15 -41 15 -22 0
-109 51 -136 79 -14 16 -37 36 -52 46 -15 9 -30 28 -33 41 -4 14 -11 21 -20
17 -8 -3 -14 1 -14 9 0 8 -10 24 -23 36 -18 17 -44 24 -122 33 -55 6 -115 12
-132 13 -18 0 -33 2 -33 4 0 1 16 25 35 53 19 28 35 60 35 71 0 10 4 17 9 13
6 -3 15 4 21 15 6 11 14 19 18 16 4 -2 8 13 8 35 1 21 -2 36 -7 33 -5 -3 -6 2
-2 12 5 14 8 13 19 -7 10 -19 13 -20 14 -6 0 9 5 17 10 17 6 0 10 5 10 10 0 6
8 20 18 31 11 11 25 38 31 61 7 23 20 52 28 65 8 13 12 23 8 23 -4 0 -3 6 2
13 6 6 16 35 23 62 6 28 14 58 17 68 2 9 8 15 13 12 12 -7 18 17 14 52 -5 47
66 138 154 197 167 111 320 150 416 107z m1426 -1821 c0 -5 -7 -10 -16 -10
-35 0 1 -20 39 -22 l42 -1 -50 -6 c-27 -3 140 -5 371 -4 l422 1 -1 -31 -1 -32
-756 1 c-415 1 -793 6 -840 10 -47 5 -122 7 -167 4 -189 -12 28 34 242 50 77
7 145 11 150 10 38 -8 525 2 525 10 0 6 -8 11 -17 11 -10 1 -4 5 12 9 43 11
45 11 45 0z m-2586 -1051 c-5 -9 1 -10 20 -5 18 4 25 3 21 -3 -3 -6 6 -10 22
-10 15 0 35 -1 43 -1 8 -1 24 1 36 5 13 4 27 1 38 -10 9 -9 16 -12 16 -6 0 6
5 11 11 11 5 0 7 -4 4 -10 -3 -5 1 -10 9 -10 9 0 16 -5 16 -11 0 -5 5 -7 10
-4 8 5 7 11 -1 21 -11 14 1 20 14 8 3 -4 48 -6 99 -5 51 1 145 -5 208 -14 140
-20 504 -86 655 -120 123 -27 453 -84 500 -86 21 -1 24 -3 10 -6 -39 -10 136
-65 395 -124 25 -5 50 -15 55 -22 6 -7 19 -13 30 -15 36 -5 45 -11 39 -26 -20
-52 -373 -86 -664 -65 -235 17 -507 55 -565 79 -11 5 -38 12 -60 16 -22 4 -42
8 -45 9 -19 6 -108 47 -120 55 -51 34 -155 56 -303 64 -59 3 -111 8 -116 11
-5 2 -61 12 -125 20 -64 8 -142 23 -174 31 -31 9 -96 27 -144 40 -83 22 -138
47 -138 64 0 4 18 27 40 52 37 43 59 54 145 72 11 2 21 4 23 5 2 0 0 -4 -4
-10z m3602 -1021 c71 -78 94 -114 104 -168 6 -29 9 -55 7 -56 -2 -2 -15 8 -30
22 -15 14 -27 21 -28 17 0 -4 -4 2 -9 15 -5 12 -7 29 -4 37 4 8 1 15 -6 15
-16 0 -79 69 -69 76 5 3 0 19 -11 35 -15 20 -17 29 -8 29 8 0 6 4 -4 11 -10 5
-18 14 -18 20 0 17 33 -7 76 -53z"/>
<path d="M5077 6860 c-35 -30 -50 -69 -37 -90 7 -11 109 -51 175 -69 51 -13
116 9 142 48 29 43 26 53 -18 64 -19 5 -38 12 -44 17 -11 9 -160 60 -175 60
-5 0 -25 -14 -43 -30z"/>
<path d="M4784 6709 c-9 -16 11 -32 96 -78 110 -59 196 -88 311 -107 97 -15
106 -15 163 2 71 20 133 52 140 71 9 22 -13 15 -59 -18 -43 -31 -46 -32 -127
-26 -141 9 -418 94 -418 127 0 6 -5 10 -11 10 -5 0 -7 -4 -4 -10 3 -6 -1 -7
-9 -4 -9 3 -16 9 -16 13 0 7 -44 31 -55 31 -2 0 -7 -5 -11 -11z"/>
<path d="M3240 5431 c-24 -26 -39 -35 -47 -29 -19 15 -36 -1 -21 -19 10 -12 9
-17 -5 -25 -14 -7 -15 -13 -6 -29 8 -17 7 -23 -8 -35 -12 -9 -14 -13 -4 -14
10 0 11 -3 2 -13 -14 -17 -4 -27 27 -27 20 0 23 4 19 21 l-6 21 23 -21 c26
-24 36 -19 36 20 0 15 7 34 15 43 8 8 15 22 15 31 0 8 -7 18 -15 21 -20 8 -19
24 1 24 11 0 15 6 11 20 -5 21 9 28 15 8 3 -9 6 -9 12 0 4 7 2 12 -3 12 -6 0
-11 7 -11 15 0 23 -12 17 -50 -24z"/>
<path d="M4047 1600 c-3 -25 -9 -72 -12 -105 -17 -165 -55 -345 -75 -345 -3 0
-14 -23 -24 -51 -13 -34 -26 -53 -42 -59 -58 -22 -6 -57 109 -71 106 -14 207
-5 238 22 12 10 28 19 34 19 17 0 23 27 30 130 3 47 15 122 26 168 10 46 19
96 19 112 0 16 5 32 10 35 6 3 10 28 10 56 0 27 6 58 12 69 10 15 10 22 1 31
-9 9 -14 6 -22 -12 -10 -22 -44 -205 -76 -409 -11 -66 -32 -134 -49 -156 -1
-1 -12 -5 -26 -8 -16 -5 -20 -4 -12 2 21 15 -51 52 -101 52 -23 0 -53 6 -67
13 -22 12 -27 11 -42 -6 -10 -11 -18 -16 -18 -11 0 6 4 14 9 20 23 22 90 480
79 530 -3 11 -7 -1 -11 -26z"/>
<path d="M6432 1088 c-4 -77 -13 -118 -27 -118 -20 0 -10 -138 11 -161 16 -17
91 -37 239 -64 355 -64 424 -74 548 -79 75 -4 165 -13 198 -22 45 -12 123 -16
317 -17 230 -2 263 0 316 17 39 13 60 26 64 38 4 16 10 18 35 12 35 -7 67 -25
67 -36 0 -5 8 -8 18 -8 63 0 0 54 -82 70 l-61 13 77 17 c43 9 81 20 85 23 11
12 -48 8 -203 -12 -308 -40 -577 -59 -597 -43 -7 6 -28 12 -47 14 -25 2 -38
10 -45 26 -5 12 -17 21 -25 20 -8 -1 -21 1 -27 5 -8 5 -13 3 -13 -6 0 -12 -13
-14 -67 -10 -38 2 -87 9 -110 15 -23 5 -46 7 -52 3 -6 -3 -11 1 -11 9 0 8 -12
16 -27 19 l-28 4 28 2 c15 0 27 5 27 9 0 4 87 7 193 6 105 -1 215 2 242 6 35
6 9 8 -90 5 -153 -4 -334 6 -462 26 -78 13 -81 14 -66 31 15 17 14 18 -20 18
-21 0 -37 4 -37 9 0 4 -20 11 -45 14 -46 7 -58 13 -100 55 -12 12 -27 22 -32
22 -6 0 -16 6 -22 14 -6 7 -28 16 -49 20 -21 3 -53 19 -71 35 -28 25 -30 30
-14 34 13 3 11 5 -8 6 -23 1 -25 -3 -27 -41z"/>
</g>
</svg>
