<?xml version="1.0" standalone="no"?>
<!DOCTYPE svg PUBLIC "-//W3C//DTD SVG 20010904//EN"
 "http://www.w3.org/TR/2001/REC-SVG-20010904/DTD/svg10.dtd">
<svg version="1.0" xmlns="http://www.w3.org/2000/svg"
 width="1024.000000pt" height="1024.000000pt" viewBox="0 0 1024.000000 1024.000000"
 preserveAspectRatio="xMidYMid meet">
<metadata>
Created by potrace 1.16, written by Peter Selinger 2001-2019
</metadata>
<g transform="translate(0.000000,1024.000000) scale(0.100000,-0.100000)"
fill="#000000" stroke="none">
<path d="M0 6589 l0 -3652 38 7 c20 3 92 9 160 12 67 4 122 10 122 14 0 8 116
17 405 30 225 10 315 19 315 31 0 5 22 9 48 9 26 0 53 5 59 11 8 8 18 6 37 -6
36 -24 176 -12 176 15 0 14 12 18 61 24 92 9 179 7 179 -4 0 -14 78 -12 82 2
3 9 40 12 134 11 101 -1 134 2 153 14 20 13 45 14 140 9 64 -4 140 -9 169 -12
34 -4 52 -2 52 5 0 6 5 11 11 11 8 0 7 -5 -1 -15 -7 -9 -10 -18 -6 -22 7 -7
36 28 30 38 -2 3 6 16 17 28 12 12 18 29 15 37 -3 8 -1 12 4 9 5 -3 18 12 30
34 11 22 31 57 45 78 14 21 30 45 35 53 5 8 25 39 45 67 19 29 35 55 35 59 0
3 10 14 23 25 24 20 57 25 57 9 0 -5 -6 -10 -14 -10 -10 0 -14 -9 -13 -28 2
-21 -2 -26 -15 -24 -10 2 -18 -3 -18 -11 0 -8 -7 -20 -15 -27 -9 -8 -12 -17
-7 -24 10 -13 -22 -48 -34 -38 -4 4 -4 1 0 -6 5 -8 -2 -20 -16 -31 -26 -22
-18 -41 9 -20 16 12 15 11 -1 -8 -10 -13 -27 -25 -37 -28 -11 -4 -19 -16 -19
-27 0 -14 -5 -18 -16 -14 -8 3 -12 2 -9 -4 4 -6 -1 -17 -9 -26 -10 -10 -14
-24 -10 -40 4 -16 1 -26 -9 -30 -9 -3 -13 -12 -10 -20 3 -8 2 -26 -2 -42 -7
-25 -8 -25 -15 -7 -5 11 -9 14 -9 8 -2 -24 -4 -28 -22 -41 -25 -17 -24 -31 1
-25 11 3 20 0 20 -6 0 -6 -6 -12 -12 -13 -7 0 -17 -2 -23 -3 -5 -2 -14 -4 -20
-5 -5 -1 1 -5 15 -9 l25 -7 -30 -15 c-16 -8 -31 -23 -33 -34 -2 -11 -10 -35
-18 -53 -9 -18 -13 -40 -10 -48 4 -9 -1 -13 -16 -11 -16 1 -25 -6 -32 -28 -6
-16 -15 -33 -21 -37 -6 -5 -5 -8 3 -8 6 0 12 -7 12 -15 0 -16 -34 -55 -48 -55
-4 0 -8 -11 -10 -25 -2 -14 -10 -38 -18 -53 l-14 -27 -1 30 c0 30 -1 30 -14
-8 -8 -21 -16 -54 -17 -73 -4 -64 -16 -34 -13 33 l4 68 -14 -40 c-7 -22 -14
-52 -14 -66 -1 -29 -30 -75 -31 -48 0 8 5 20 11 26 7 7 7 13 0 17 -15 10 -43
-48 -29 -62 7 -7 6 -20 -6 -43 -16 -31 -23 -94 -8 -74 4 6 22 15 40 22 29 10
32 10 22 -3 -7 -8 -18 -14 -25 -14 -7 0 -15 -9 -18 -21 -3 -12 -10 -18 -16
-14 -17 10 -12 -27 5 -50 11 -14 18 -16 21 -7 3 6 9 12 15 12 6 0 8 -7 4 -15
-4 -11 1 -15 19 -15 14 0 25 -4 25 -10 0 -5 6 -10 14 -10 8 0 17 -4 21 -9 6
-12 -44 -61 -62 -61 -7 0 -13 -7 -13 -16 0 -11 -6 -14 -23 -9 -15 4 -18 4 -8
-3 24 -17 2 -30 -52 -30 -50 0 -184 13 -238 23 -24 4 -27 1 -34 -31 -3 -20 -5
-37 -3 -39 2 -1 22 -14 46 -29 43 -27 48 -46 11 -46 -11 0 -27 -6 -35 -14 -12
-12 -7 -16 38 -25 28 -6 76 -27 107 -45 31 -19 77 -40 104 -46 35 -9 47 -17
47 -31 0 -11 -4 -19 -10 -19 -5 0 -10 -7 -10 -15 0 -19 -29 -65 -50 -81 -8 -7
-26 -21 -39 -33 -29 -25 -35 -26 -51 -6 -8 9 -8 15 -2 15 6 0 12 -6 15 -12 2
-7 8 -10 12 -6 11 11 -25 49 -38 41 -5 -3 -15 1 -21 10 -12 16 -27 20 -59 18
-10 0 -15 -6 -12 -11 3 -6 16 -8 28 -4 18 4 28 -3 50 -37 21 -32 25 -45 16
-55 -9 -11 -8 -14 5 -14 9 0 16 3 16 8 0 4 9 13 20 20 11 7 20 8 20 3 0 -12
-69 -55 -94 -58 -19 -3 -19 -3 0 19 10 12 15 19 9 16 -94 -47 -115 -52 -163
-38 -19 5 -31 5 -26 1 5 -5 18 -11 29 -13 18 -4 17 -6 -8 -18 l-28 -14 23 -18
c18 -14 19 -17 4 -11 -13 4 -17 3 -12 -5 4 -7 2 -10 -7 -7 -7 3 -19 -5 -27
-19 -7 -14 -17 -23 -22 -20 -4 3 -8 0 -8 -6 0 -6 -7 -10 -16 -8 -10 2 -19 -4
-21 -12 -4 -13 -3 -13 7 0 10 13 11 12 6 -3 -3 -10 -6 -21 -6 -25 0 -3 -6 2
-13 12 -10 13 -20 16 -35 12 -12 -4 -20 -12 -17 -17 4 -5 -1 -9 -9 -9 -9 0
-15 -6 -14 -12 2 -9 -12 -12 -47 -11 -48 2 -49 2 -17 -9 41 -14 41 -27 0 -35
l-33 -7 40 -7 c22 -5 177 -8 345 -9 191 -1 294 -5 276 -10 -16 -5 -33 -15 -39
-22 -6 -9 -7 -8 -3 6 5 14 2 17 -10 12 -8 -3 -39 -7 -67 -7 -29 -1 -41 -4 -27
-6 43 -8 41 -19 -3 -15 -23 3 -39 1 -35 -4 10 -9 -117 -64 -154 -67 -16 -1
-28 -6 -28 -11 0 -4 -7 -6 -15 -3 -8 4 -30 -9 -52 -31 -21 -21 -58 -44 -82
-52 l-44 -14 32 -8 c27 -7 30 -11 18 -22 -7 -8 -22 -16 -33 -19 -15 -4 -14 -5
6 -6 l25 -2 -23 -10 c-13 -5 -21 -13 -18 -18 19 -30 -269 -31 -484 -2 -192 27
-230 30 -235 21 -6 -10 19 -16 128 -31 48 -7 84 -15 80 -19 -4 -4 -39 -14 -76
-23 -82 -20 -160 -53 -153 -66 32 -51 503 -52 831 -1 72 11 193 29 269 40 77
12 141 22 141 23 1 1 15 31 32 67 49 105 84 130 238 174 59 16 96 33 111 49
22 24 118 67 150 67 8 0 13 4 9 9 -3 5 7 19 21 30 19 15 22 21 11 21 -14 0
-16 12 -16 69 1 39 -2 75 -6 80 -3 6 0 11 8 11 7 0 26 13 42 30 35 36 43 101
22 180 -17 62 -9 92 38 154 32 42 75 147 75 183 0 43 67 134 275 373 166 191
283 355 351 494 l28 57 14 -33 c8 -18 15 -36 14 -40 -1 -3 14 -20 33 -37 19
-17 34 -34 33 -39 -2 -5 17 -26 41 -46 40 -34 45 -35 61 -21 10 9 34 55 54
103 68 162 180 376 199 378 9 1 15 -2 11 -7 -3 -5 -10 -6 -16 -3 -7 5 -9 0 -6
-14 4 -12 2 -20 -2 -17 -5 3 -11 1 -15 -5 -3 -5 -1 -10 4 -10 6 0 11 -5 11
-11 0 -6 -7 -8 -16 -5 -12 5 -15 2 -10 -9 3 -9 -1 -18 -9 -21 -17 -7 -21 -34
-5 -34 6 0 5 -6 -2 -14 -7 -8 -17 -11 -23 -8 -5 3 -5 -1 1 -9 6 -8 10 -25 9
-39 -2 -14 -4 -30 -4 -37 -1 -7 -8 -10 -16 -7 -10 4 -15 0 -15 -16 0 -11 -4
-19 -8 -16 -5 3 -8 -8 -7 -25 1 -21 -2 -28 -12 -25 -8 4 -13 -3 -13 -18 0 -14
-5 -26 -12 -28 -9 -3 -9 -12 2 -37 8 -20 16 -28 20 -21 5 8 9 6 14 -6 3 -9 4
-19 1 -22 -3 -3 -5 1 -5 9 0 12 -2 12 -9 0 -7 -11 -10 -9 -16 8 -5 18 -9 20
-21 10 -19 -16 -18 -30 2 -22 12 4 15 2 12 -8 -7 -20 -33 -22 -52 -4 -9 9 -16
12 -16 6 0 -6 11 -18 25 -27 27 -18 35 -47 10 -38 -12 5 -15 -2 -15 -31 0 -38
0 -38 20 -20 11 10 23 16 26 12 3 -3 -3 -10 -13 -16 -47 -27 -48 -28 -32 -47
12 -16 12 -17 -2 -12 -9 3 -22 3 -29 -2 -19 -12 -1 -32 23 -25 17 5 19 4 7 -4
-8 -5 -32 -13 -52 -16 -38 -7 -65 -35 -53 -55 4 -6 -1 -13 -9 -16 -9 -4 -16
-18 -16 -33 1 -23 2 -24 13 -9 8 10 18 13 26 9 10 -6 9 -10 -4 -15 -11 -4 -15
-13 -12 -26 3 -11 1 -20 -4 -20 -5 0 -9 7 -9 16 0 9 -6 14 -12 11 -7 -2 -12
-13 -10 -23 2 -12 0 -15 -5 -7 -18 26 -69 0 -83 -43 -12 -37 -6 -58 16 -50 18
7 23 -4 13 -29 -6 -17 -8 -17 -8 -2 -1 27 -16 20 -17 -9 -2 -18 2 -24 12 -20
8 3 14 -1 14 -10 0 -8 -4 -13 -9 -9 -5 3 -13 0 -17 -7 -6 -9 -10 -5 -15 12 -7
24 -7 24 -8 3 -1 -25 -20 -30 -40 -10 -11 10 -13 9 -9 -3 3 -8 16 -15 29 -16
14 0 30 -3 36 -7 6 -4 14 -1 17 5 6 13 2 -8 -10 -54 -4 -16 -3 -19 4 -9 8 11
10 11 14 0 4 -11 8 -12 20 -1 13 11 17 9 22 -14 5 -20 10 -24 19 -15 16 16 43
15 29 -1 -6 -7 -10 -17 -10 -23 0 -5 -9 -12 -19 -16 -15 -6 -14 -8 7 -9 14 -1
19 -4 13 -7 -15 -6 -17 -33 -3 -33 18 0 11 -18 -9 -23 -11 -2 -21 -15 -23 -28
-2 -13 -9 -23 -16 -21 -6 1 -11 -4 -10 -10 4 -19 -39 -18 -134 3 -80 18 -232
29 -243 18 -7 -8 -25 -107 -25 -141 l0 -30 58 3 c88 3 98 1 110 -27 9 -19 9
-24 0 -18 -8 5 -9 2 -5 -9 4 -10 1 -17 -6 -17 -7 0 5 -16 26 -35 21 -19 45
-35 53 -35 22 0 64 -30 64 -46 0 -8 -5 -14 -11 -14 -8 0 -8 -4 0 -14 10 -12 8
-16 -10 -21 -17 -6 -27 -1 -41 16 -19 23 -20 23 -15 2 4 -16 1 -20 -10 -16
-12 5 -14 -1 -9 -29 4 -23 0 -41 -10 -54 -14 -18 -15 -18 -5 3 7 14 8 24 1 28
-5 3 -10 2 -10 -3 0 -6 -17 -9 -37 -7 -21 1 -30 1 -20 -2 11 -3 16 -10 13 -18
-3 -8 -1 -17 4 -20 15 -9 12 -25 -4 -25 -7 0 -19 -7 -26 -15 -7 -8 -21 -15
-31 -15 -10 0 -30 -5 -46 -12 -15 -6 -31 -12 -35 -12 -4 -1 -13 -7 -19 -13
-16 -16 -33 -17 -24 -2 5 7 -3 9 -21 7 -24 -2 -29 -8 -29 -31 -1 -26 0 -27 12
-11 20 27 15 -1 -8 -51 -19 -39 -23 -43 -36 -30 -19 19 -39 9 -22 -11 10 -12
9 -13 -6 -7 -15 5 -17 3 -12 -11 4 -10 3 -15 -4 -11 -5 4 -7 16 -3 27 4 14 3
18 -5 13 -7 -4 -22 0 -34 8 -21 14 -118 39 -125 32 -2 -1 19 -10 46 -19 39
-13 51 -22 55 -41 3 -19 0 -25 -14 -25 -12 0 -19 -7 -19 -20 0 -17 7 -20 43
-22 l42 -1 -38 -4 c-21 -3 -51 2 -67 11 -17 8 -28 10 -25 5 8 -12 4 -12 -41 7
l-39 16 22 -23 c20 -21 36 -24 165 -32 182 -11 342 -4 701 30 l289 28 -4 82
c-3 75 -1 82 17 87 33 9 67 7 60 -4 -3 -6 4 -10 16 -10 12 0 31 -7 41 -17 17
-15 170 -44 323 -59 33 -4 65 -11 72 -16 6 -5 34 -10 62 -10 32 -1 52 -6 55
-15 3 -7 14 -13 25 -13 28 0 37 -21 16 -37 -18 -13 -18 -13 1 -13 14 0 12 -4
-11 -16 -16 -8 -34 -22 -38 -30 -4 -8 -16 -14 -25 -14 -10 0 -22 -4 -27 -8
-18 -16 -168 -41 -361 -62 -105 -11 -196 -20 -202 -20 -11 0 -21 47 -24 118
-2 38 -4 42 -27 41 -19 -1 -21 -3 -8 -6 16 -4 14 -9 -14 -34 -18 -16 -50 -32
-71 -35 -21 -4 -43 -13 -49 -20 -6 -8 -16 -14 -22 -14 -5 0 -20 -10 -32 -22
-42 -42 -54 -48 -100 -55 -25 -3 -45 -10 -45 -14 0 -5 -16 -9 -37 -9 -34 0
-35 -1 -20 -18 15 -17 12 -18 -66 -31 -128 -20 -309 -30 -462 -26 -99 3 -125
1 -90 -5 28 -4 137 -7 243 -6 105 1 192 -1 192 -5 0 -4 12 -10 28 -12 l27 -4
-27 -2 c-18 0 -28 -7 -28 -17 0 -8 -5 -12 -11 -9 -6 4 -29 2 -52 -3 -23 -6
-72 -13 -109 -15 -55 -4 -68 -2 -68 10 0 9 -5 11 -12 6 -7 -4 -20 -6 -28 -5
-8 1 -20 -8 -25 -20 -7 -16 -20 -24 -45 -26 -19 -2 -40 -8 -47 -14 -20 -16
-289 3 -597 43 -155 20 -214 24 -203 12 4 -3 42 -14 85 -23 l77 -17 -61 -13
c-36 -7 -73 -22 -89 -36 l-28 -24 24 -9 c127 -48 513 -61 819 -28 175 19 424
60 815 133 202 37 505 78 922 124 46 5 87 11 92 14 5 3 55 10 112 15 97 9 319
38 469 61 85 13 576 50 618 46 17 -1 52 -3 75 -4 27 -1 53 -10 66 -21 52 -45
258 -36 386 17 59 24 95 31 220 41 83 7 213 18 290 26 77 8 201 17 275 20 134
6 266 17 410 35 41 5 102 12 135 15 33 4 105 16 160 27 184 38 285 55 391 67
38 4 74 10 80 13 5 3 43 9 84 13 41 3 95 12 120 20 25 7 75 16 112 19 75 7
100 14 93 26 -3 4 10 7 28 5 17 -1 40 4 49 13 11 9 28 12 45 9 15 -4 22 -4 16
-1 -7 3 -13 17 -13 31 l0 26 -117 -8 c-138 -11 -274 -9 -282 3 -3 5 -57 9
-119 9 -82 -1 -116 3 -122 12 -5 9 -22 12 -46 10 l-39 -4 3 82 3 83 -80 0
c-80 0 -81 0 -81 -26 0 -14 -4 -23 -10 -19 -5 3 -10 15 -10 26 0 29 -55 25
-92 -6 -16 -14 -36 -25 -44 -25 -9 0 -12 -5 -8 -12 4 -7 3 -8 -5 -4 -6 4 -9
11 -6 16 3 4 -2 13 -9 19 -11 10 -15 8 -20 -6 -3 -10 -4 -6 -2 10 2 15 0 27
-4 27 -12 0 -20 -28 -20 -67 0 -20 -3 -33 -7 -29 -11 10 -12 87 -2 80 5 -3 9
-1 9 3 0 5 -15 9 -34 9 -33 0 -33 0 -12 -17 11 -10 17 -21 13 -26 -5 -4 -15 0
-22 10 -8 11 -16 14 -19 8 -4 -6 5 -18 19 -27 21 -14 54 -89 43 -99 -2 -2 -21
20 -43 50 -21 30 -44 56 -51 59 -7 3 -29 31 -50 63 -21 32 -61 85 -89 119 -27
34 -81 101 -120 149 -38 49 -83 104 -100 122 -41 46 -156 236 -147 244 4 4 52
21 107 39 139 45 432 164 541 219 50 25 108 54 130 63 74 33 252 178 373 304
107 110 124 124 138 112 15 -12 15 -11 5 9 -10 18 -8 28 13 59 14 20 25 34 25
30 0 -11 -22 -50 -32 -57 -5 -3 -2 -12 7 -19 13 -11 15 -10 10 2 -3 8 1 21 10
28 13 11 18 10 29 -6 12 -15 16 -16 30 -5 13 11 16 11 16 -2 0 -13 45 -16 328
-21 360 -7 392 -10 392 -31 0 -11 12 -15 40 -15 22 0 40 5 40 10 0 6 47 10
120 10 73 0 120 -4 120 -10 0 -6 39 -10 98 -10 54 0 102 -4 108 -9 5 -5 59
-11 119 -15 61 -3 156 -8 213 -12 l102 -7 0 3662 0 3661 -5120 0 -5120 0 0
-3651z m5070 2254 c-62 -23 -100 -47 -130 -84 -19 -24 -34 -47 -32 -51 1 -4
-2 -8 -8 -8 -5 0 -10 -5 -10 -10 0 -15 -63 -109 -77 -114 -8 -3 -10 1 -7 12 6
18 -22 -11 -65 -67 -32 -42 -52 -41 -45 2 10 57 52 131 108 192 31 32 54 60
53 60 -11 7 -73 26 -117 36 l-55 13 60 8 c33 4 102 7 152 6 51 -1 96 2 100 5
3 4 25 7 47 6 23 0 34 -3 26 -6z m-517 -39 c-15 -11 -15 -14 -3 -15 8 -1 18
-1 23 0 4 0 7 -3 7 -9 0 -5 7 -10 15 -10 13 0 14 -4 4 -22 l-11 -21 30 22 c29
20 31 20 41 4 5 -10 6 -24 1 -33 -4 -8 -10 -31 -14 -51 -3 -20 -19 -47 -34
-62 -77 -72 -77 -72 -73 -42 1 6 -5 2 -12 -7 -33 -42 -37 4 -7 71 11 24 19 45
18 47 -2 1 -14 -6 -27 -17 -13 -10 -20 -19 -17 -19 4 0 2 -6 -4 -12 -6 -7 -18
-22 -26 -33 -15 -19 -15 -19 -9 10 3 17 9 39 12 50 6 20 5 20 -16 1 -11 -11
-24 -16 -28 -13 -3 4 -15 -5 -26 -20 l-19 -28 6 34 6 33 -21 -23 -20 -24 7 25
c3 14 12 35 20 47 18 29 18 39 0 24 -12 -10 -13 -9 -9 8 7 27 104 93 150 101
47 8 60 2 36 -16z m1712 -300 c48 -62 137 -266 122 -280 -2 -2 -27 0 -54 6
l-50 11 -2 91 c0 51 -4 94 -8 97 -8 6 -53 97 -53 106 0 15 21 0 45 -31z m-735
-419 c64 -20 162 -64 171 -78 4 -5 13 -6 20 -2 8 5 11 5 7 0 -5 -5 2 -15 15
-24 12 -9 24 -13 26 -11 11 13 30 -74 30 -144 l1 -79 75 -112 c41 -62 75 -115
75 -117 0 -5 -189 2 -219 8 -18 4 -22 10 -19 29 6 32 -19 55 -102 94 -60 29
-73 31 -170 31 -149 0 -250 -16 -370 -58 -8 -3 -19 -6 -25 -6 -18 -2 -9 -103
12 -132 l20 -27 -46 -44 c-40 -39 -53 -45 -112 -53 -36 -5 -74 -13 -84 -16
-16 -6 -17 -1 -10 63 l7 70 -41 43 -40 42 -93 -7 c-63 -5 -104 -13 -126 -26
-18 -10 -35 -19 -38 -19 -2 0 -4 57 -4 128 0 180 23 254 94 305 26 19 44 22
118 22 73 0 91 3 115 22 17 12 53 24 86 28 41 5 64 14 80 31 15 16 33 24 57
24 19 0 53 5 75 11 116 33 314 34 415 4z m275 -665 c4 -6 -9 -10 -32 -11 -34
-1 -35 -2 -13 -9 l25 -8 -27 -1 c-20 -1 -32 -9 -43 -31 -16 -31 -12 -56 6 -44
5 3 15 1 22 -4 7 -6 28 -15 47 -20 48 -15 101 -35 127 -50 29 -16 63 -82 63
-122 0 -17 5 -39 12 -50 10 -16 9 -22 -11 -39 -17 -15 -32 -19 -50 -15 -33 8
-100 6 -116 -4 -37 -22 -91 -73 -123 -117 -20 -27 -49 -62 -64 -77 -24 -22
-28 -34 -28 -77 0 -28 -4 -59 -10 -69 -5 -9 -20 -42 -33 -72 -23 -52 -92 -150
-173 -246 -57 -66 -134 -124 -195 -145 -70 -25 -154 -35 -163 -20 -4 6 -12 9
-17 6 -5 -4 -9 2 -10 12 0 10 -3 13 -5 6 -13 -32 -128 77 -255 242 -38 50 -73
95 -77 100 -31 40 -102 212 -102 247 0 9 19 13 68 13 111 1 181 45 255 159 26
41 32 62 35 117 4 73 17 93 62 103 31 7 51 -8 74 -59 42 -91 75 -131 133 -160
75 -39 157 -39 262 -2 89 31 140 64 178 113 25 33 28 48 33 133 5 83 9 101 32
134 15 21 30 47 33 58 5 14 16 19 40 19 19 0 37 -4 40 -10z m-386 -6 c42 -9
39 -24 -5 -24 -43 0 -112 -38 -153 -85 -16 -18 -31 -32 -33 -30 -11 11 -6 -74
5 -89 13 -17 15 -15 21 24 5 31 17 53 42 77 44 41 62 43 32 3 -24 -33 -28 -83
-8 -120 11 -20 18 -22 62 -18 59 6 92 28 135 92 l32 47 21 -40 c35 -71 20
-135 -46 -189 -62 -52 -136 -75 -234 -76 -115 -1 -127 7 -164 119 -33 97 -36
143 -12 180 12 19 25 25 52 25 29 0 44 8 79 44 54 56 105 73 174 60z m1084
-74 c37 0 65 -52 61 -113 -2 -29 -8 -61 -13 -72 -31 -71 -57 -120 -64 -124 -4
-1 -16 -11 -25 -21 -9 -10 -39 -21 -65 -25 -41 -6 -53 -4 -77 14 -16 11 -34
21 -40 21 -19 0 -10 15 24 42 50 40 73 118 66 222 -2 19 4 33 16 40 25 15 66
24 82 20 8 -2 23 -4 35 -4z m-1800 -117 c-38 -57 -9 -196 43 -209 33 -8 68 17
80 56 5 17 14 31 19 31 17 0 17 -42 0 -88 -36 -95 -115 -152 -220 -161 -55 -4
-65 -2 -113 28 -29 18 -51 35 -48 38 3 2 11 0 18 -5 7 -6 23 -13 34 -17 20 -6
22 -1 34 73 7 44 17 79 22 78 6 -1 23 35 38 81 30 92 52 122 87 122 23 0 23 0
6 -27z m2100 -602 c14 -6 28 -19 32 -30 3 -12 13 -27 21 -36 21 -20 84 -118
84 -129 0 -5 -10 -1 -21 10 l-22 19 18 -35 c15 -29 15 -33 2 -22 -10 9 -17 10
-22 2 -8 -13 -85 -13 -85 1 0 5 -5 7 -10 4 -6 -4 -8 -11 -5 -16 4 -5 1 -9 -5
-9 -7 0 -14 9 -17 20 -3 11 -14 20 -24 20 -10 0 -21 5 -25 11 -10 17 -109 4
-141 -19 -16 -11 -38 -23 -50 -26 -13 -4 -23 -12 -23 -17 0 -5 -5 -9 -12 -9
-21 0 -48 -33 -48 -59 0 -20 -12 -34 -52 -61 -29 -19 -60 -43 -69 -52 -10 -9
-68 -50 -131 -91 -91 -60 -207 -142 -273 -194 -112 -89 -259 -165 -322 -167
-38 -1 -50 -7 -73 -34 -15 -18 -40 -65 -55 -105 -15 -40 -41 -98 -57 -130 -16
-32 -38 -93 -48 -135 -22 -84 -25 -121 -8 -82 6 14 11 28 10 31 0 3 6 6 14 6
10 0 12 -7 8 -20 -4 -13 -2 -17 5 -13 7 4 11 0 11 -11 -1 -31 -25 -124 -31
-119 -3 3 -4 -9 -3 -27 3 -29 3 -30 -5 -7 -5 14 -9 19 -10 12 -1 -7 -5 -10
-11 -7 -5 3 -10 -4 -11 -17 -1 -23 -1 -23 -8 2 -8 26 -10 15 -27 -144 -5 -55
12 -426 24 -513 7 -48 8 -48 50 -54 29 -4 42 -2 42 7 0 6 7 15 16 18 12 4 15
2 11 -9 -5 -12 7 -14 86 -9 159 9 577 44 708 59 279 33 1122 43 1140 13 5 -7
9 -8 9 -3 0 6 5 3 10 -6 15 -25 25 -253 11 -245 -6 4 -11 17 -12 29 -1 21 -1
21 -8 -2 -6 -22 -7 -22 -20 -7 -11 13 -22 15 -40 10 -14 -4 -62 -8 -106 -9
-82 -3 -276 -28 -330 -44 -16 -5 -96 -15 -176 -22 -167 -14 -770 -7 -879 11
-93 15 -94 15 -107 23 -9 5 -13 2 -13 -8 0 -9 -5 -13 -10 -10 -6 4 -21 0 -33
-8 -12 -8 -56 -27 -97 -42 -68 -25 -87 -27 -205 -26 -71 0 -143 2 -160 5 -57
8 -170 39 -205 56 -19 9 -63 25 -97 35 -72 21 -135 14 -278 -28 -118 -36 -168
-48 -187 -48 -10 0 -20 -5 -24 -10 -3 -5 -22 -7 -42 -4 -80 13 -84 15 -79 35
3 13 0 20 -9 20 -10 0 -14 -12 -14 -37 0 -21 4 -33 8 -26 12 19 99 4 105 -18
4 -15 0 -19 -24 -19 -19 0 -29 5 -29 15 0 20 -7 19 -36 -4 -19 -15 -21 -20 -9
-25 15 -5 20 -42 9 -70 -3 -9 -10 -13 -15 -10 -5 3 -9 0 -9 -6 0 -7 -7 -10
-15 -6 -8 3 -15 2 -15 -2 0 -10 -51 -15 -165 -14 -55 0 -149 1 -210 1 -60 0
-263 5 -450 12 -324 11 -624 4 -815 -18 -48 -6 -51 -7 -25 -13 47 -10 -133
-23 -208 -15 -67 7 -117 22 -117 36 0 5 -14 21 -31 36 -17 16 -38 44 -47 63
-19 43 -41 134 -41 178 -1 17 -5 32 -10 32 -5 0 -11 28 -14 63 -11 113 -19
167 -28 173 -5 3 -9 24 -9 48 0 23 -3 46 -7 50 -4 4 -9 19 -11 34 -2 15 -7 29
-13 30 -5 2 -9 21 -9 42 0 21 -4 41 -9 44 -4 3 -11 34 -14 68 -3 35 -9 74 -12
88 -3 14 -12 63 -20 110 -7 47 -15 96 -18 110 -2 14 -13 77 -22 140 -10 63
-21 117 -25 120 -7 5 -19 80 -25 150 -2 19 -10 61 -18 93 -8 31 -12 57 -9 57
3 0 1 5 -6 12 -7 7 -12 26 -12 43 0 17 -9 63 -20 103 -25 92 -25 108 3 136 21
21 36 24 143 30 65 3 180 11 254 16 74 6 432 30 795 55 363 24 715 49 782 55
74 6 131 6 146 1 28 -11 39 -52 62 -236 8 -66 22 -154 30 -195 8 -41 21 -124
30 -185 9 -60 25 -155 36 -210 20 -95 43 -233 55 -320 13 -95 13 -95 48 -24
18 36 67 116 109 176 42 61 81 121 86 134 5 13 37 61 70 107 34 45 59 87 56
92 -4 6 1 7 11 3 14 -5 16 -3 11 11 -4 9 -3 15 2 11 6 -3 22 11 38 31 19 26
24 39 15 42 -6 2 -10 8 -7 12 3 5 12 7 20 3 11 -4 13 -1 8 13 -3 9 -2 15 3 12
5 -3 21 6 36 21 20 19 25 30 18 41 -5 8 -12 11 -17 7 -4 -5 -1 -13 7 -18 11
-8 10 -9 -7 -4 -23 6 -33 -9 -13 -18 6 -3 5 -4 -2 -3 -7 2 -13 14 -13 29 -1
14 3 23 7 21 4 -3 17 0 29 7 15 8 19 8 15 0 -8 -12 -4 -14 18 -5 8 3 12 13 9
22 -4 15 -3 15 6 2 8 -11 7 -18 -6 -27 -9 -7 -14 -15 -12 -17 3 -3 18 6 34 20
17 15 23 23 13 20 -14 -4 -18 0 -18 19 0 14 5 25 12 25 6 0 3 7 -8 14 -17 13
-15 14 18 2 50 -17 57 -25 33 -42 -19 -14 -18 -15 10 -8 17 4 31 8 32 8 1 1
-9 19 -24 39 -21 29 -27 52 -31 110 -4 69 -2 78 33 153 21 43 37 85 36 93 -1
7 2 10 9 6 12 -8 39 22 36 40 -2 5 -1 7 1 3 3 -4 14 -1 26 7 23 14 110 32 90
18 -6 -4 -11 -29 -11 -55 1 -42 3 -45 20 -35 21 14 23 23 6 30 -7 3 -4 6 7 7
35 3 97 1 101 -2 8 -8 -51 -172 -87 -240 -5 -10 -9 -41 -9 -70 0 -84 -7 -98
-46 -98 -32 0 -34 -2 -28 -25 5 -19 2 -25 -10 -25 -11 0 -16 -9 -16 -27 -1
-26 -1 -27 -12 -8 -12 22 -59 65 -70 65 -4 0 -13 -6 -20 -12 -7 -7 -36 -24
-63 -38 -33 -17 -43 -26 -31 -28 17 -4 17 -5 -1 -25 -11 -13 -13 -17 -3 -12 8
5 21 10 30 12 8 1 27 5 42 9 15 3 39 3 54 0 23 -6 25 -9 12 -24 -22 -27 -34
-60 -82 -229 -50 -180 -59 -223 -81 -382 -8 -62 -18 -124 -21 -137 -4 -15 0
-34 10 -49 13 -20 16 -51 14 -167 -1 -79 -3 -123 -5 -99 -3 24 -10 50 -18 57
-8 8 -12 29 -10 51 5 48 -14 111 -26 92 -5 -8 -9 -9 -9 -4 0 15 16 37 26 36
13 -2 13 35 0 83 l-11 41 -5 -50 c-4 -35 -9 -49 -19 -47 -9 2 -11 -3 -7 -15 6
-17 5 -17 -8 0 -10 14 -15 15 -19 5 -3 -7 -5 19 -5 57 0 114 -1 125 -14 123
-8 -2 -15 13 -18 42 l-6 45 -7 -60 c-5 -33 -19 -89 -32 -125 -13 -36 -28 -76
-33 -90 -5 -14 -9 -28 -8 -31 0 -3 -5 -13 -12 -21 -10 -13 -9 -18 3 -28 12
-10 12 -14 0 -26 -7 -8 -18 -14 -24 -14 -6 0 -10 -6 -9 -12 2 -7 -3 -12 -9
-10 -17 3 -17 -15 0 -21 7 -3 5 -6 -6 -6 -10 -1 -28 -10 -40 -22 -17 -15 -31
-19 -59 -15 -26 4 -38 2 -39 -7 0 -9 -2 -9 -6 1 -2 6 -13 12 -24 12 -14 0 -19
-7 -19 -28 0 -15 5 -33 12 -40 9 -9 9 -12 0 -12 -7 0 -12 -12 -11 -27 l1 -28
7 25 c6 21 13 25 41 22 48 -4 115 -45 117 -71 1 -15 -15 -35 -55 -66 -63 -50
-65 -49 -83 33 -19 80 -23 54 -6 -35 9 -43 18 -95 22 -115 5 -34 9 -38 35 -38
23 0 42 12 77 49 45 46 96 71 145 71 10 0 79 15 155 34 76 19 169 37 207 40
38 3 70 7 71 8 2 2 -3 41 -11 88 -22 132 -35 454 -23 552 33 276 194 635 345
774 l34 32 34 -34 c41 -41 83 -45 162 -15 41 16 75 44 168 139 115 118 161
155 345 275 52 35 97 69 99 77 4 13 3 13 -11 2 -9 -8 -22 -10 -28 -6 -7 4 -9
3 -5 -4 3 -6 1 -14 -5 -18 -7 -4 -9 -3 -5 4 3 6 2 13 -4 17 -10 6 -50 132 -50
156 1 8 10 -13 22 -46 11 -33 27 -68 36 -78 18 -21 16 -22 177 98 125 94 205
138 243 134 15 -2 33 0 40 4 6 5 17 5 22 2 6 -3 10 1 10 10 0 9 5 13 10 10 6
-3 14 5 19 18 6 14 16 27 23 30 45 18 -50 6 -437 -58 -77 -12 -142 -20 -145
-18 -27 25 227 75 464 92 76 5 141 12 144 15 9 10 129 7 155 -3z m157 -255 c0
-5 7 -17 16 -27 28 -31 8 -39 -105 -39 -100 0 -131 7 -131 31 0 7 67 31 115
42 33 8 105 3 105 -7z m1510 -254 c105 -23 157 -46 253 -110 76 -52 102 -80
175 -189 112 -166 163 -529 108 -768 -8 -33 -17 -85 -21 -115 -8 -75 -16 -112
-21 -107 -3 2 3 76 12 163 19 195 21 386 3 485 l-13 74 -7 -50 c-4 -27 -8 -78
-8 -112 -1 -35 -5 -63 -11 -63 -6 0 -10 -27 -10 -61 0 -33 -3 -58 -7 -56 -5 3
-9 -25 -11 -61 -2 -37 -8 -71 -15 -77 -12 -10 -16 -42 -18 -145 -1 -52 -1 -53
-10 -20 -6 28 -7 23 -4 -25 3 -43 1 -54 -6 -40 -8 17 -9 16 -5 -8 2 -15 -1
-30 -5 -33 -5 -3 -9 -15 -9 -27 0 -18 2 -19 10 -7 8 13 10 12 10 -2 0 -10 -5
-18 -10 -18 -6 0 -10 -6 -9 -12 5 -39 -2 -79 -13 -72 -6 4 -8 3 -4 -4 3 -6 1
-23 -5 -39 -6 -15 -26 -102 -45 -193 -18 -91 -42 -190 -53 -220 -25 -71 -26
-56 -2 29 11 36 22 89 26 116 4 28 15 87 26 133 49 213 87 480 114 802 9 100
-11 347 -34 440 -23 94 -27 52 -4 -50 12 -56 17 -126 17 -280 1 -184 -16 -397
-32 -425 -4 -5 -5 -23 -4 -40 2 -21 0 -26 -6 -16 -7 9 -8 -3 -6 -35 3 -38 2
-44 -6 -29 -8 16 -9 13 -4 -13 6 -34 -35 -264 -49 -270 -4 -2 -5 -8 -2 -12 3
-5 2 -28 -2 -52 -6 -39 -7 -41 -15 -18 -7 22 -7 22 -3 -5 6 -44 -35 -260 -47
-244 -6 10 -7 7 -3 -8 8 -29 -15 -109 -27 -91 -5 10 -8 8 -8 -5 0 -18 -47
-173 -58 -192 -3 -5 -7 -18 -7 -28 -1 -10 -7 -22 -14 -26 -7 -4 -9 -15 -5 -26
5 -12 4 -16 -3 -12 -7 4 -18 -20 -29 -63 -10 -39 -21 -70 -25 -70 -4 0 -9 -9
-12 -20 -3 -11 -1 -18 3 -15 4 3 6 -4 3 -16 -4 -16 -8 -17 -14 -7 -6 9 -9 5
-9 -13 0 -14 -7 -34 -15 -45 -8 -10 -15 -26 -15 -35 0 -9 -7 -19 -15 -23 -8
-3 -15 -11 -15 -18 0 -12 -12 -36 -80 -161 -12 -22 -19 -44 -17 -50 9 -24 6
-32 -12 -29 -19 3 -56 -39 -63 -69 -2 -8 -20 -27 -40 -42 -21 -16 -38 -34 -38
-41 0 -6 -8 -19 -17 -28 -29 -27 -43 -46 -43 -59 0 -6 -7 -8 -16 -5 -12 5 -14
1 -9 -15 5 -14 3 -19 -3 -15 -6 4 -16 -4 -23 -16 -14 -28 -30 -39 -45 -34 -7
3 -10 -4 -8 -17 2 -12 2 -17 -2 -10 -4 10 -10 10 -27 0 -12 -7 -25 -16 -28
-20 -3 -5 -32 17 -63 49 -38 37 -50 55 -37 51 12 -3 19 -1 16 3 -3 5 1 17 9
27 79 97 93 120 146 236 23 49 68 199 77 252 10 65 13 315 4 315 -6 0 -13 17
-16 38 -12 79 -28 149 -48 207 -19 56 -23 74 -26 118 0 11 -6 15 -13 11 -6 -4
-8 -3 -4 4 3 6 1 23 -5 39 -6 15 -18 55 -26 88 -7 33 -20 70 -28 82 -8 12 -15
33 -15 47 0 14 -5 37 -11 53 -19 48 -39 133 -39 163 0 17 -4 30 -10 30 -5 0
-10 11 -10 25 0 14 -4 25 -9 25 -5 0 -11 30 -15 68 -3 37 -8 94 -11 127 -3 33
-7 152 -9 265 -2 181 -11 355 -22 444 -2 16 -8 34 -14 40 -5 5 -10 20 -10 32
0 12 -7 27 -15 34 -8 7 -13 16 -10 20 10 16 -77 70 -114 70 -10 0 -21 5 -23
10 -3 9 -111 15 -168 10 -8 -1 -31 0 -50 3 -19 3 -43 2 -54 -2 -14 -6 -27 0
-47 20 -30 31 -172 109 -198 109 -28 0 -61 29 -54 48 11 29 24 32 141 32 62 0
218 7 345 15 319 21 378 23 642 19 181 -2 248 -7 315 -22z m-1775 -82 c24 -6
19 -8 -30 -9 -89 -2 -132 -17 -185 -67 -48 -45 -83 -105 -114 -198 -19 -55
-59 -278 -58 -318 1 -16 -3 -28 -8 -28 -5 0 -7 -6 -5 -12 2 -7 -2 -56 -9 -108
-8 -52 -14 -88 -15 -79 -1 11 -11 15 -36 14 -34 -1 -49 18 -22 28 6 3 1 6 -12
6 -21 1 -22 3 -10 18 12 15 12 16 -3 10 -17 -6 -18 5 -20 136 0 78 -3 127 -5
110 -2 -18 -8 -33 -14 -33 -5 0 -9 -15 -9 -34 0 -36 -19 -62 -21 -29 0 10 -5
4 -10 -14 -5 -18 -25 -44 -44 -59 -43 -33 -39 -40 9 -20 34 14 36 14 36 -4 0
-14 -5 -18 -17 -13 -11 4 -14 3 -9 -5 20 -33 -333 -121 -489 -122 -38 -1 -46
-3 -33 -11 18 -10 87 -4 296 26 94 14 152 13 152 -4 0 -3 -7 -15 -15 -25 -8
-10 -12 -23 -8 -29 3 -6 -3 -17 -13 -25 -18 -13 -18 -14 6 -8 23 6 23 6 8 -7
-10 -8 -18 -23 -19 -33 0 -18 -1 -18 -8 1 -7 17 -9 16 -15 -13 -4 -18 -11 -30
-15 -27 -5 2 -6 -6 -4 -20 4 -18 -1 -27 -24 -39 -16 -8 -44 -28 -61 -44 -33
-31 -15 -28 -315 -55 -10 -1 -15 -7 -13 -14 4 -9 0 -10 -18 -2 -27 13 -36 56
-36 177 0 41 -3 73 -6 69 -3 -3 -5 -88 -3 -189 5 -341 4 -382 -8 -396 -8 -8
-9 -22 -2 -44 5 -18 9 -44 8 -58 0 -23 -1 -23 -9 -5 -8 19 -9 18 -9 -4 -1 -13
-3 -22 -6 -20 -9 10 -20 285 -20 524 l0 250 48 174 c60 217 70 243 93 234 12
-4 15 -3 10 5 -4 7 -2 12 3 12 6 0 11 8 12 18 0 9 3 12 5 5 3 -6 -9 -63 -25
-126 -40 -146 -38 -157 4 -33 19 54 37 101 39 103 3 3 25 6 50 8 26 1 52 7 59
13 13 10 94 24 162 27 22 2 47 5 55 8 8 3 56 8 105 10 101 4 165 28 165 59 0
33 82 178 118 209 47 41 201 115 277 132 30 7 76 6 110 -3z m40 -155 c138 -36
284 -127 351 -217 34 -47 43 -66 40 -91 -4 -35 2 -59 14 -52 5 3 11 -3 13 -12
3 -10 11 -40 17 -68 7 -27 17 -56 23 -62 5 -7 6 -13 2 -13 -4 0 0 -10 8 -23 8
-13 21 -42 28 -65 6 -23 20 -50 31 -61 10 -11 18 -25 18 -31 0 -5 5 -10 10
-10 6 0 10 -8 10 -17 1 -14 4 -13 14 6 11 20 14 21 19 7 4 -10 3 -15 -2 -12
-5 3 -8 -12 -7 -33 0 -22 4 -37 8 -35 4 3 12 -5 18 -16 6 -11 15 -18 21 -15 5
4 9 -3 9 -13 0 -11 16 -43 35 -71 19 -28 35 -52 35 -53 0 -2 -15 -4 -33 -4
-17 -1 -77 -7 -132 -13 -78 -9 -104 -16 -122 -33 -13 -12 -23 -28 -23 -36 0
-8 -6 -12 -14 -9 -9 4 -16 -3 -20 -17 -3 -13 -18 -32 -33 -41 -15 -10 -38 -30
-52 -46 -27 -28 -114 -79 -136 -79 -7 0 -26 -7 -41 -15 -16 -8 -39 -15 -51
-15 -12 0 -33 -4 -48 -10 -35 -13 -132 -22 -164 -15 -15 3 -33 16 -40 28 -13
20 -13 21 2 8 10 -8 17 -9 17 -3 0 6 -6 15 -14 19 -31 18 -68 134 -47 147 11
7 1 147 -11 164 -7 8 -7 12 1 12 9 0 9 6 0 23 -7 12 -13 38 -14 57 -1 19 -11
87 -22 150 -23 130 -46 328 -47 410 0 40 7 72 27 115 75 162 147 200 302 160z
m-1536 -1831 c2 -2 -3 -4 -12 -4 -9 0 -17 -4 -17 -10 0 -8 487 -18 525 -10 47
9 447 -41 467 -59 4 -3 -30 -4 -75 -1 -45 3 -120 1 -167 -4 -47 -4 -425 -9
-840 -10 l-756 -1 -1 32 -1 31 422 -1 c231 -1 399 1 371 4 l-50 6 42 1 c38 2
74 22 39 22 -9 0 -16 4 -16 10 0 8 58 3 69 -6z m2622 -1062 c24 -10 99 -87 99
-103 0 -16 -56 -41 -138 -63 -48 -13 -113 -31 -144 -40 -32 -8 -110 -23 -174
-31 -64 -8 -120 -18 -125 -20 -5 -3 -57 -8 -116 -11 -148 -8 -252 -30 -303
-64 -12 -8 -101 -49 -120 -55 -3 -1 -23 -5 -45 -9 -22 -4 -49 -11 -60 -16 -58
-24 -330 -62 -565 -79 -291 -21 -644 13 -664 65 -6 15 3 21 39 26 11 2 25 8
30 15 6 7 30 17 55 22 259 59 434 114 395 124 -14 3 -11 5 10 6 47 2 377 59
500 86 151 34 515 100 655 120 63 9 157 15 208 14 51 -1 96 1 99 5 13 12 25 6
14 -8 -8 -10 -9 -16 -1 -21 5 -3 10 -1 10 4 0 6 7 11 16 11 8 0 12 5 9 10 -3
6 -1 10 4 10 6 0 11 -5 11 -11 0 -6 7 -3 16 6 11 11 25 14 38 10 12 -4 28 -6
36 -5 8 0 28 1 43 1 16 0 25 4 22 10 -4 6 3 7 21 3 17 -4 25 -3 21 3 -7 11 60
1 104 -15z m-2906 -711 c165 -15 446 -30 573 -32 61 -1 112 -4 113 -8 6 -46 7
-569 1 -579 -5 -7 -26 -14 -48 -17 -21 -3 -70 -10 -109 -16 -38 -5 -78 -10
-87 -10 -10 0 -18 -4 -18 -8 0 -4 -51 -11 -112 -14 -62 -3 -158 -11 -213 -17
-204 -23 -503 -61 -585 -76 -47 -8 -135 -23 -195 -34 -61 -10 -133 -24 -160
-30 -28 -6 -63 -12 -80 -12 -16 0 -35 -5 -42 -10 -7 -5 -14 -5 -18 2 -9 14
-27 2 -19 -13 4 -7 4 -9 -1 -5 -4 4 -17 2 -29 -4 -16 -8 -13 -2 11 25 45 51
61 85 69 145 5 40 12 55 32 68 42 27 122 105 165 159 21 28 53 66 71 85 17 19
63 73 101 120 62 76 166 190 250 273 l30 29 95 -6 c52 -3 145 -10 205 -15z
m2116 -138 c78 -81 144 -154 216 -238 24 -28 56 -66 73 -85 17 -19 33 -45 36
-57 3 -13 9 -21 13 -19 3 2 16 -9 29 -24 21 -27 13 -34 -16 -16 -7 4 -16 5
-19 2 -3 -3 7 -11 23 -18 16 -6 48 -27 72 -46 41 -33 42 -35 26 -53 -10 -11
-23 -18 -30 -15 -8 3 -11 -1 -7 -11 8 -21 -24 -4 -56 31 -14 15 -27 22 -30 17
-3 -5 -24 -5 -46 -1 l-40 8 41 1 c42 1 54 12 54 49 0 13 -2 14 -9 4 -6 -11
-26 -12 -85 -7 l-76 7 0 -31 0 -31 -80 0 c-73 0 -80 2 -80 20 0 18 -7 20 -80
20 -64 0 -80 -3 -80 -15 0 -11 -11 -15 -40 -15 -29 0 -40 4 -40 15 0 13 -34
15 -249 15 -271 0 -311 -4 -311 -29 0 -12 -2 -13 -8 -3 -5 7 -16 10 -24 7 -11
-4 -18 0 -21 12 -10 40 -6 -60 8 -177 17 -150 53 -341 66 -355 5 -5 9 -13 9
-19 0 -5 -8 0 -17 11 -16 17 -21 18 -43 6 -14 -7 -44 -13 -67 -13 -50 0 -122
-37 -101 -52 8 -6 4 -7 -12 -2 -14 3 -25 7 -26 8 -17 22 -38 90 -49 156 -31
194 -66 386 -74 406 -8 18 -74 46 -116 48 -24 2 -20 325 5 350 5 5 13 -8 18
-30 43 -177 51 -215 48 -226 -1 -7 -1 -10 1 -5 3 4 9 5 14 1 11 -6 12 -41 2
-47 -5 -2 -3 -3 4 -1 6 1 14 -8 17 -20 5 -21 13 -24 88 -29 46 -3 103 -9 128
-13 42 -6 47 -4 56 17 12 26 4 181 -16 319 -10 68 -9 77 10 102 11 15 20 39
20 53 l0 25 183 0 c192 0 377 18 512 50 44 10 85 19 90 19 6 1 44 -34 86 -76z
m-2855 -119 c-11 -8 -14 -14 -7 -14 8 0 5 -10 -9 -29 -11 -16 -16 -32 -11 -35
10 -7 -53 -76 -69 -76 -7 0 -10 -7 -6 -15 3 -8 1 -25 -4 -37 -5 -13 -9 -19 -9
-15 -1 4 -13 -3 -28 -17 -15 -14 -28 -24 -30 -22 -2 1 1 27 7 56 7 37 23 69
51 106 49 64 118 128 127 119 4 -4 -2 -13 -12 -21z"/>
<path d="M5049 6870 c-31 -10 -76 -27 -100 -38 -24 -11 -53 -21 -63 -23 -28
-6 -29 -21 -3 -60 26 -39 91 -61 142 -48 66 18 168 58 175 69 13 21 -2 60 -37
90 -39 35 -40 35 -114 10z"/>
<path d="M5413 6708 c-13 -6 -23 -14 -23 -18 0 -5 -7 -11 -16 -14 -8 -3 -12
-2 -9 4 3 6 1 10 -4 10 -6 0 -11 -4 -11 -10 0 -33 -277 -118 -418 -127 -81 -6
-84 -5 -127 26 -46 33 -68 40 -59 18 7 -19 69 -51 140 -71 57 -17 66 -17 164
-2 56 9 137 30 179 46 99 38 226 111 226 129 0 19 -15 22 -42 9z"/>
<path d="M6950 5456 c0 -8 -5 -16 -12 -18 -9 -3 -9 -6 0 -12 7 -4 12 -2 12 3
0 6 4 11 9 11 5 0 7 -9 4 -20 -4 -14 0 -20 11 -20 20 0 21 -16 1 -24 -8 -3
-15 -13 -15 -21 0 -9 7 -23 15 -31 8 -9 15 -28 15 -43 0 -39 10 -44 36 -20
l23 21 -6 -21 c-4 -17 -1 -21 19 -21 31 0 41 10 27 27 -9 10 -8 13 2 13 10 1
8 5 -4 14 -15 12 -16 18 -8 35 9 16 8 22 -6 29 -14 8 -15 13 -5 25 15 18 -3
36 -20 19 -7 -7 -23 3 -49 29 -43 43 -49 46 -49 25z"/>
</g>
</svg>
