<?xml version="1.0" standalone="no"?>
<!DOCTYPE svg PUBLIC "-//W3C//DTD SVG 20010904//EN"
 "http://www.w3.org/TR/2001/REC-SVG-20010904/DTD/svg10.dtd">
<svg version="1.0" xmlns="http://www.w3.org/2000/svg"
 width="1256.000000pt" height="1256.000000pt" viewBox="0 0 1256.000000 1256.000000"
 preserveAspectRatio="xMidYMid meet">
<metadata>
Created by potrace 1.16, written by Peter Selinger 2001-2019
</metadata>
<g transform="translate(0.000000,1256.000000) scale(0.100000,-0.100000)"
fill="#000000" stroke="none">
<path d="M6505 10970 c-3 -5 -14 -10 -23 -10 -9 0 -39 -11 -67 -24 -42 -21
-69 -32 -95 -41 -3 -1 -12 -4 -20 -8 -15 -6 -167 -25 -261 -33 -83 -7 -70 -14
25 -14 57 0 126 9 198 25 61 14 113 25 117 24 15 -1 -49 -21 -99 -31 -30 -5
-90 -26 -132 -45 l-77 -35 -72 -120 c-75 -126 -118 -183 -119 -159 0 8 -19 -4
-45 -28 -54 -49 -89 -56 -79 -13 16 69 68 154 139 230 l75 80 -83 20 c-132 34
-143 40 -67 42 36 1 73 5 83 8 10 4 -31 6 -90 5 -306 -8 -306 -8 -350 -32 -49
-26 -176 -159 -207 -216 -11 -22 -24 -42 -28 -45 -4 -3 -10 -25 -14 -48 -4
-23 -11 -45 -15 -48 -5 -3 -6 -16 -3 -29 3 -12 1 -26 -5 -29 -12 -8 -16 -158
-4 -169 3 -4 7 -24 7 -44 1 -21 4 -42 8 -48 3 -5 9 -26 13 -45 12 -61 16 -71
28 -63 9 5 9 3 0 -8 -11 -14 -6 -72 6 -65 3 2 5 -13 3 -34 -4 -39 13 -85 27
-75 5 2 9 -1 8 -8 -1 -33 4 -47 18 -47 8 0 14 -3 13 -7 -3 -11 25 -73 33 -73
4 0 9 -23 13 -50 8 -62 15 -82 27 -74 5 3 6 -3 2 -12 -4 -11 -2 -15 4 -11 6 4
8 -3 6 -17 -3 -16 3 -29 21 -43 14 -11 23 -23 19 -27 -3 -3 1 -14 10 -24 25
-28 37 -111 37 -263 0 -153 3 -146 -80 -191 -17 -10 -29 -22 -25 -27 3 -5 0
-13 -6 -17 -8 -4 -9 -3 -5 4 11 18 -10 14 -25 -5 -10 -11 -10 -14 -1 -9 18 11
15 1 -5 -15 -11 -10 -14 -10 -9 -1 10 17 -5 15 -32 -4 -12 -8 -20 -20 -17 -25
3 -5 -2 -6 -11 -2 -11 4 -15 2 -11 -4 4 -6 0 -14 -9 -17 -10 -4 -13 -2 -8 7 5
8 2 7 -9 -2 -12 -10 -17 -29 -17 -72 0 -54 3 -62 33 -92 31 -29 56 -78 72
-135 4 -12 10 -20 14 -18 4 3 8 0 8 -7 0 -47 91 -161 138 -173 14 -3 25 -10
25 -16 0 -5 4 -7 9 -4 17 11 61 -36 71 -77 6 -23 15 -51 19 -62 5 -11 15 -41
21 -67 7 -27 17 -48 21 -48 5 0 9 -9 9 -19 0 -11 10 -32 23 -48 33 -42 67 -91
67 -98 0 -3 5 -11 10 -18 6 -7 19 -23 31 -37 46 -58 105 -124 123 -139 10 -9
42 -38 70 -66 29 -27 65 -60 81 -72 28 -21 29 -22 8 -22 -13 -1 -23 -5 -23
-11 0 -5 -5 -10 -12 -10 -16 0 -76 -66 -107 -120 -75 -126 -92 -265 -47 -375
13 -32 26 -53 29 -48 4 6 -2 28 -12 49 -58 119 -20 298 90 426 45 54 128 90
154 68 11 -9 12 -17 5 -30 -6 -10 -10 -35 -10 -55 0 -20 -5 -46 -11 -58 -6
-13 -1 -10 13 8 68 88 69 89 126 76 43 -11 50 -16 42 -29 -14 -29 -97 -225
-110 -262 -6 -19 -15 -77 -19 -128 -4 -50 -11 -95 -14 -98 -4 -4 -18 1 -31 10
-34 21 -34 21 -38 -16 -3 -29 -8 -34 -41 -42 -38 -10 -40 -9 -84 37 -34 36
-48 45 -58 37 -9 -8 -15 -8 -20 -1 -4 7 -15 1 -29 -14 -13 -14 -28 -25 -35
-25 -6 0 -11 -4 -11 -10 0 -5 -4 -10 -10 -10 -17 0 -101 -84 -140 -140 -21
-30 -46 -62 -57 -72 -16 -14 -52 -56 -83 -95 -6 -7 -10 -15 -10 -19 0 -4 -11
-22 -25 -40 -14 -18 -25 -37 -25 -42 0 -6 -4 -12 -8 -14 -4 -1 -21 -25 -37
-53 -15 -27 -31 -52 -34 -55 -14 -12 -71 -99 -71 -109 0 -6 -4 -11 -8 -11 -5
0 -19 -19 -32 -41 -12 -23 -31 -50 -41 -60 -10 -10 -34 -46 -53 -81 -40 -73
-64 -86 -64 -36 0 30 -16 202 -24 253 -2 11 -6 22 -9 25 -3 3 -11 55 -17 115
-14 125 -15 136 -24 150 -3 6 -9 39 -12 75 -4 36 -9 74 -12 85 -2 11 -7 36 -9
55 -10 73 -17 110 -24 110 -3 0 -5 17 -5 37 1 21 -1 43 -5 48 -3 6 -7 24 -8
40 -3 55 -28 203 -35 211 -5 4 -8 22 -8 41 0 18 -4 33 -8 33 -5 0 -7 14 -4 31
3 22 -1 36 -16 49 -25 23 -29 58 39 -340 114 -677 140 -836 135 -853 -5 -18
35 -262 94 -577 17 -91 31 -176 31 -189 -1 -13 11 -91 25 -175 14 -83 30 -185
35 -227 5 -42 15 -111 23 -153 17 -86 14 -105 -18 -107 -81 -5 -812 8 -1031
19 -179 8 -615 8 -715 -1 -36 -3 -112 -8 -170 -11 -235 -15 -252 -17 -258 -34
-1 -5 5 -12 15 -15 32 -8 -221 -6 -264 2 -24 5 -43 5 -43 1 0 -15 70 -20 350
-26 157 -3 290 -10 295 -14 6 -5 39 -8 75 -7 56 1 65 -1 68 -17 3 -11 0 -16
-7 -12 -6 4 -11 3 -11 -2 0 -5 -12 -17 -27 -26 l-28 -17 24 20 c13 12 19 21
15 21 -14 -1 -44 -26 -44 -37 0 -5 -19 -24 -42 -42 l-43 -33 37 36 c21 20 35
36 32 36 -13 0 -84 -62 -79 -69 2 -5 -7 -19 -20 -31 -14 -13 -25 -20 -25 -16
0 5 -7 3 -15 -4 -18 -15 -20 -34 -2 -25 6 4 4 0 -5 -8 -10 -8 -14 -18 -10 -22
4 -5 2 -5 -5 -1 -8 4 -21 -15 -39 -54 -15 -34 -34 -67 -43 -73 -9 -7 -24 -23
-33 -37 -8 -14 -24 -35 -35 -47 -11 -12 -28 -34 -39 -48 -10 -15 -29 -38 -41
-51 -13 -14 -23 -31 -23 -39 0 -7 -3 -15 -7 -17 -12 -5 -63 -82 -63 -95 0 -5
-9 -20 -20 -33 -11 -13 -20 -30 -19 -39 0 -14 1 -14 10 -1 5 8 35 57 67 107
78 126 205 298 210 283 3 -7 10 -6 23 6 19 17 20 17 13 0 -6 -16 -5 -17 14 -5
29 18 39 4 16 -22 -10 -12 -17 -24 -15 -27 2 -4 -9 -14 -25 -23 -16 -8 -29
-20 -29 -25 0 -5 -15 -29 -33 -53 -29 -41 -34 -49 -31 -67 0 -4 -3 -10 -8 -13
-10 -6 -60 -86 -55 -86 2 0 -1 -12 -7 -26 -8 -23 -35 -44 -51 -41 -3 0 -18
-22 -33 -50 -15 -27 -23 -47 -17 -43 20 13 -14 -50 -47 -86 -18 -19 -30 -38
-27 -42 4 -4 2 -7 -6 -7 -10 0 -10 -4 1 -17 10 -11 10 -14 2 -9 -9 5 -13 -1
-13 -19 0 -17 -4 -24 -12 -19 -7 4 -8 3 -4 -4 4 -6 13 -9 21 -5 23 8 18 -15
-5 -27 -11 -6 -20 -16 -18 -23 1 -7 -12 -28 -30 -47 -18 -19 -32 -40 -32 -48
0 -7 -4 -10 -10 -7 -5 3 -7 0 -4 -8 3 -8 -3 -18 -13 -22 -28 -12 -43 -14 -43
-5 0 13 -27 6 -48 -13 -20 -19 -22 -79 -2 -85 6 -2 6 -12 -2 -25 -8 -16 -8
-22 1 -25 6 -2 11 -15 11 -28 0 -14 6 -24 14 -24 7 0 19 -13 26 -30 11 -27 10
-32 -11 -51 -13 -11 -17 -18 -9 -14 12 5 12 4 -1 -7 -9 -7 -15 -23 -13 -34 2
-12 -3 -27 -10 -33 -12 -10 -14 -2 -11 46 l3 58 -44 33 -45 32 -23 -23 c-23
-23 -66 -123 -66 -154 0 -13 5 -12 25 7 15 14 25 18 25 11 0 -11 3 -11 15 -1
8 7 34 13 57 15 39 3 41 2 23 -12 -11 -8 -32 -17 -47 -20 -16 -3 -28 -9 -28
-14 0 -5 -5 -9 -12 -9 -37 0 -208 -151 -208 -184 0 -11 2 -17 5 -14 11 10 80
-20 94 -42 8 -11 10 -20 5 -19 -20 6 -50 -13 -66 -40 -12 -23 -22 -29 -42 -27
-14 2 -26 0 -26 -4 0 -12 43 -29 127 -49 45 -11 105 -31 133 -43 49 -23 50
-25 33 -40 -10 -9 -62 -33 -117 -53 -105 -40 -157 -45 -266 -26 -73 12 -84 17
-95 44 -7 14 -19 22 -37 23 -29 1 -31 -4 -43 -89 -9 -57 2 -73 56 -87 22 -6
39 -15 39 -19 0 -5 -23 -24 -51 -42 l-51 -32 71 -18 c80 -20 98 -29 162 -75
27 -20 59 -34 75 -34 43 0 80 -23 76 -46 -2 -10 -4 -25 -4 -33 -1 -8 -14 -21
-30 -30 -32 -18 -35 -28 -11 -33 13 -2 7 -11 -25 -37 l-42 -33 -21 26 c-24 30
-39 34 -34 9 2 -10 4 -22 4 -26 1 -5 6 -5 13 -1 7 4 8 3 4 -5 -6 -9 -14 -6
-30 11 -25 27 -18 36 47 59 21 7 43 19 49 26 6 7 -16 1 -48 -14 -56 -26 -124
-37 -124 -21 0 13 -43 9 -63 -6 -24 -19 -21 -29 8 -24 13 3 22 2 20 -2 -3 -4
2 -13 10 -20 11 -9 15 -9 15 -1 0 9 5 9 20 1 26 -14 44 -58 31 -74 -8 -9 -2
-12 25 -10 19 2 39 6 44 9 6 3 10 2 10 -4 0 -25 -85 -59 -117 -47 -14 6 -14 8
3 21 17 14 17 14 -8 4 -15 -7 -25 -15 -23 -19 2 -4 -7 -12 -21 -19 -26 -12
-105 -5 -115 11 -3 5 -16 10 -30 13 l-24 4 27 -22 c27 -22 27 -23 8 -35 -12
-7 -20 -8 -20 -2 0 5 -7 10 -16 10 -10 0 -14 6 -11 14 4 11 1 13 -11 10 -14
-5 -13 -3 2 10 19 15 18 16 -17 16 -20 0 -37 -5 -37 -11 0 -5 4 -8 8 -5 5 3
19 -6 32 -21 16 -18 19 -28 10 -33 -6 -4 -11 -11 -11 -16 1 -5 -3 -10 -9 -10
-21 -3 -22 -4 -11 -18 8 -10 9 -16 1 -21 -6 -3 -8 -10 -5 -15 3 -4 -7 -18 -22
-30 -16 -12 -22 -18 -15 -15 12 6 12 3 2 -16 -18 -34 -24 -38 -16 -11 6 18 3
22 -13 22 -11 0 -23 -4 -26 -10 -3 -5 -20 -10 -37 -10 -25 0 -29 -3 -25 -20 4
-16 -1 -21 -29 -26 -19 -3 -49 -4 -66 0 -31 6 -31 6 10 -24 23 -17 42 -33 42
-36 0 -4 -7 -1 -15 6 -19 15 -28 9 -19 -14 9 -25 151 -24 157 2 4 14 5 15 6 1
2 -30 462 -38 685 -13 42 5 57 4 52 -4 -9 -15 -115 -29 -235 -31 -42 -1 -44
-2 -25 -16 10 -8 15 -14 9 -13 -44 9 -163 -33 -267 -95 l-37 -22 -25 24 c-14
14 -26 20 -26 13 0 -6 -8 -13 -17 -16 -10 -4 -31 -24 -47 -46 -34 -46 -86 -69
-159 -71 -45 -1 -42 -3 28 -10 104 -11 128 -16 85 -18 -30 -1 -39 -7 -60 -40
-43 -71 -47 -72 -375 -59 -99 4 -250 16 -335 27 -174 23 -200 25 -200 12 0
-14 27 -21 159 -42 119 -18 160 -29 112 -29 -37 0 -223 -50 -269 -71 -42 -21
-48 -39 -12 -39 10 0 44 13 77 29 32 16 76 32 98 36 22 4 63 13 90 20 74 20
187 25 305 14 58 -5 165 -13 238 -18 75 -4 138 -13 145 -20 6 -6 21 -11 34
-11 38 0 29 -30 -9 -31 -29 -2 -30 -3 -7 -6 21 -3 255 30 516 73 28 4 34 10
44 47 31 118 121 195 284 243 33 9 80 26 105 37 25 11 48 21 51 21 3 1 13 9
23 19 11 11 27 16 40 12 11 -2 15 -2 8 1 -18 8 35 44 65 44 12 0 25 4 28 10 3
5 15 10 26 10 11 0 17 5 14 10 -3 6 7 18 24 28 35 20 40 32 12 32 -18 0 -20 9
-23 91 l-3 91 33 24 c17 14 39 39 48 56 23 45 23 144 0 195 -24 54 -16 97 28
155 53 69 94 159 109 241 14 73 18 82 93 173 44 52 93 115 110 140 17 24 58
72 90 107 74 76 232 268 301 362 55 76 153 236 172 283 l12 28 82 -81 c45 -44
105 -97 134 -117 l51 -37 22 55 c13 30 24 53 26 51 3 -2 -3 -21 -12 -42 -17
-42 -7 -68 20 -46 8 7 20 10 26 6 9 -6 15 8 11 28 -1 5 4 5 10 1 9 -5 10 1 6
24 -4 17 -2 34 2 37 5 3 7 13 5 23 -3 10 9 34 29 57 25 31 33 48 31 75 -2 43
28 96 59 103 12 2 30 8 40 12 13 5 17 2 17 -14 0 -12 -4 -21 -10 -21 -5 0 -10
-7 -10 -15 0 -8 -5 -15 -11 -15 -8 0 -8 -4 0 -14 14 -16 5 -60 -14 -76 -7 -6
-11 -20 -8 -30 3 -12 0 -20 -7 -20 -10 0 -10 -3 -1 -14 9 -11 8 -23 -5 -53 -9
-21 -16 -42 -15 -48 2 -5 -1 -7 -5 -3 -3 4 -18 -2 -32 -12 -28 -22 -42 -25
-42 -9 0 5 5 7 12 3 7 -4 8 -3 4 4 -7 12 -45 -1 -47 -16 0 -4 -1 -49 -2 -99
-1 -68 -5 -93 -14 -93 -7 0 -13 -7 -13 -15 0 -12 -4 -13 -19 -6 -14 8 -22 7
-31 -4 -7 -8 -20 -15 -29 -15 -9 0 -41 -9 -71 -21 -30 -12 -64 -22 -75 -23
-20 -2 -23 -9 -70 -164 -12 -40 -12 -42 5 -27 14 13 45 90 39 97 -1 2 3 13 10
26 12 23 54 31 66 12 3 -5 19 -10 34 -10 25 0 71 -35 71 -53 0 -10 -77 -47
-83 -40 -4 3 -21 0 -39 -8 -17 -7 -40 -14 -50 -14 -23 -2 -67 -43 -79 -73 -6
-14 -5 -30 1 -42 7 -13 7 -21 0 -25 -5 -3 -10 -11 -10 -17 0 -6 10 -2 23 9 23
22 114 32 101 12 -3 -5 12 0 33 10 33 18 83 20 83 4 0 -3 -18 -23 -40 -44 -45
-44 -51 -42 -18 4 l23 32 -31 -22 c-17 -12 -36 -29 -43 -37 -10 -12 -16 -13
-26 -3 -7 7 -11 17 -8 22 3 6 -9 -6 -26 -25 -18 -19 -30 -27 -27 -17 6 18 -9
24 -19 7 -3 -5 -13 -10 -21 -10 -11 0 -13 6 -9 20 8 27 -20 27 -35 1 -17 -32
-12 -60 15 -83 14 -12 25 -28 25 -35 0 -7 7 -13 15 -13 14 0 14 -2 0 -23 -13
-21 -13 -24 0 -24 8 0 15 4 15 9 0 4 5 8 10 8 6 0 10 -7 10 -15 0 -12 14 -15
63 -15 78 0 90 -7 82 -50 -7 -42 -22 -60 -46 -60 -16 0 -18 -5 -14 -29 4 -24
-1 -34 -26 -55 -34 -29 -45 -31 -86 -15 -43 17 -191 37 -251 34 l-53 -2 3 31
c2 26 0 31 -17 28 -11 -2 -32 -4 -47 -5 -32 -2 -44 -38 -54 -166 -6 -75 -5
-83 10 -78 9 4 16 3 16 -1 0 -4 29 -6 64 -4 35 2 73 -1 84 -7 23 -12 36 -65
22 -92 -9 -16 -4 -23 31 -49 23 -16 48 -30 55 -30 7 0 29 -8 49 -17 41 -20 46
-47 14 -87 l-21 -27 -28 33 c-24 28 -30 31 -42 19 -7 -8 -8 -11 -1 -7 7 4 6
-5 -4 -24 -11 -22 -13 -45 -8 -80 7 -52 -4 -67 -22 -28 -10 24 -90 53 -108 38
-6 -5 -27 -2 -50 6 -68 25 -98 34 -103 29 -3 -2 8 -9 23 -15 23 -9 25 -13 15
-25 -7 -8 -8 -15 -3 -15 4 0 32 -16 62 -35 34 -23 58 -32 67 -27 11 6 6 12
-21 25 -20 10 -33 22 -30 27 4 6 10 8 15 5 5 -3 11 -1 15 5 10 15 55 12 55 -4
0 -8 5 -16 11 -18 7 -2 2 -15 -12 -31 -31 -35 -167 -91 -185 -76 -9 8 -11 6
-8 -9 3 -10 -2 -24 -10 -32 -14 -11 -19 -10 -34 3 -26 24 -69 32 -69 13 0 -9
7 -16 15 -16 12 0 12 -3 1 -17 -13 -16 -12 -17 3 -5 34 27 39 7 11 -48 -17
-33 -34 -54 -42 -52 -25 5 -73 -10 -68 -21 3 -8 -7 -12 -24 -12 -18 0 -25 3
-19 9 18 18 10 34 -22 45 -17 6 -33 9 -36 6 -9 -8 8 -36 18 -30 17 11 11 -7
-7 -21 -15 -12 -16 -13 -2 -8 10 3 20 1 24 -5 3 -6 0 -12 -7 -12 -34 -3 -38
-5 -39 -14 -1 -5 18 -20 42 -32 l44 -22 -45 -1 c-41 -1 -43 -2 -20 -12 16 -6
125 -8 315 -5 279 5 475 21 803 63 115 14 160 14 114 0 -11 -4 -29 -26 -41
-50 -14 -32 -33 -51 -66 -69 -25 -14 -43 -22 -40 -17 3 5 0 12 -6 16 -8 4 -9
3 -5 -4 4 -7 -9 -19 -34 -32 -22 -11 -40 -17 -40 -13 0 5 -5 0 -11 -10 -6 -9
-14 -15 -20 -12 -5 4 -9 1 -9 -5 0 -6 -6 -10 -12 -8 -7 1 -23 -3 -35 -10 -13
-7 -23 -10 -23 -6 0 4 -9 -1 -20 -11 -11 -10 -20 -15 -20 -11 0 8 -112 -54
-121 -67 -4 -5 -22 -13 -40 -18 -32 -8 -31 -8 10 -4 25 2 40 0 33 -4 -7 -4
-19 -16 -28 -27 -8 -10 -12 -12 -8 -4 4 8 -5 2 -21 -13 -16 -15 -35 -25 -42
-23 -8 3 -12 2 -9 -2 2 -4 -9 -15 -25 -25 -17 -9 -27 -11 -22 -4 4 6 -5 4 -19
-5 -23 -15 -128 -36 -151 -30 -4 1 -7 -2 -7 -7 0 -6 -12 -6 -29 -1 -15 4 -34
4 -42 -1 -7 -4 -19 -3 -26 2 -8 7 -19 7 -34 -1 -17 -10 -20 -10 -13 2 6 10 5
11 -7 2 -8 -6 -31 -10 -51 -10 -20 1 -35 -1 -32 -5 8 -14 -172 -31 -279 -27
-61 3 -102 1 -91 -3 16 -6 14 -8 -9 -8 -16 -1 -26 2 -24 7 3 4 -34 8 -81 9
-48 1 -168 15 -267 33 -99 17 -225 33 -280 35 -92 5 -98 4 -70 -9 17 -8 65
-20 108 -26 43 -7 75 -16 70 -19 -4 -4 -30 -13 -58 -20 -73 -18 -168 -63 -154
-72 15 -9 53 -2 94 16 16 7 53 21 80 31 28 9 58 24 68 32 15 13 35 14 150 3
72 -7 143 -15 157 -17 14 -3 106 -12 205 -20 99 -8 194 -19 211 -24 17 -6 47
-10 67 -10 25 0 37 -5 37 -14 0 -17 85 -25 150 -14 25 5 92 15 150 23 58 8
152 23 210 34 58 11 132 24 165 31 33 6 81 15 106 21 25 6 86 16 135 24 158
23 245 53 289 99 16 16 19 32 18 84 -1 40 -7 70 -16 81 -10 11 -16 48 -19 115
-2 55 -8 101 -14 103 -17 6 -9 194 10 231 9 18 14 37 11 41 -3 5 8 12 24 16
57 12 137 130 147 218 6 54 10 60 48 87 61 42 164 152 347 370 153 182 210
247 347 393 l54 58 196 -21 c313 -32 429 -40 655 -45 117 -3 244 -8 283 -11
l71 -5 7 -299 c6 -230 4 -304 -5 -322 -7 -13 -16 -39 -19 -60 -6 -31 -4 -38
14 -46 27 -12 134 -13 142 -1 3 5 15 9 26 9 20 0 21 3 14 92 -6 90 17 321 34
341 4 4 19 -41 35 -100 15 -59 41 -151 57 -203 16 -52 27 -103 24 -113 -2 -9
0 -15 4 -12 5 3 8 -3 8 -12 0 -10 3 -26 7 -35 4 -11 3 -18 -3 -18 -7 0 -8 -10
-2 -28 4 -16 11 -56 15 -90 4 -34 12 -65 17 -68 7 -4 7 8 2 37 -5 24 -9 63 -9
86 0 25 -3 37 -8 30 -5 -7 -5 4 -1 23 3 19 8 37 11 40 9 9 288 -2 300 -12 10
-8 13 -5 13 13 0 29 16 14 23 -21 10 -47 -2 55 -34 298 l-32 243 26 25 c19 17
27 35 27 57 l0 32 228 1 c254 0 423 18 619 63 l122 27 69 -70 c144 -149 468
-516 442 -502 -8 4 -1 -5 15 -20 17 -15 29 -32 27 -37 -1 -4 2 -6 7 -3 10 6
32 -16 35 -36 1 -7 4 -13 7 -13 3 0 13 -6 22 -14 19 -15 23 -36 5 -25 -7 5 -8
3 -4 -5 5 -7 11 -10 14 -7 9 9 41 -25 36 -38 -2 -6 23 -41 56 -76 33 -36 58
-71 55 -77 -2 -7 0 -13 4 -13 5 0 8 -8 7 -17 -2 -10 0 -20 4 -23 12 -9 19 -79
9 -86 -6 -3 -41 -6 -77 -7 -61 0 -81 -8 -82 -29 0 -5 41 -8 90 -8 77 0 93 -3
110 -20 18 -18 33 -20 146 -20 125 0 126 0 155 29 36 37 36 47 2 54 -29 6
-131 85 -132 101 -1 6 12 -2 27 -17 15 -15 31 -27 35 -27 4 0 -9 15 -29 33
-21 17 -41 31 -45 30 -7 -2 -135 148 -251 293 -26 33 -67 84 -92 114 -76 92
-425 558 -428 571 -2 7 38 25 97 44 261 85 626 238 775 325 19 11 44 20 55 20
69 0 420 295 591 495 37 44 72 83 78 87 6 4 11 13 11 20 1 7 6 12 13 11 6 -2
9 4 5 13 -3 9 0 14 8 12 8 -2 14 4 14 12 0 8 5 20 12 25 12 10 32 45 86 145
54 100 67 129 67 145 0 8 4 15 9 15 5 0 12 15 15 34 4 19 13 39 20 45 8 7 17
24 20 39 9 34 49 135 57 142 3 3 12 29 19 58 6 28 15 52 19 52 4 0 8 6 8 13 0
12 87 282 104 322 4 11 13 48 20 83 6 34 15 65 20 67 4 3 13 39 20 80 7 41 16
75 19 75 4 0 7 6 7 13 2 35 16 114 24 129 5 9 8 21 7 25 -1 4 1 17 5 29 7 20
26 140 28 174 0 8 5 29 10 45 8 27 14 60 34 195 3 19 10 59 15 89 6 30 10 73
10 96 0 22 5 46 12 53 9 9 13 75 14 235 1 255 -7 400 -31 542 -9 55 -17 106
-18 113 0 6 -3 12 -7 12 -3 0 -12 23 -19 51 -7 27 -28 81 -47 120 -19 38 -34
74 -34 79 0 6 -3 10 -8 10 -4 0 -13 14 -21 32 -15 33 -185 208 -202 208 -9 0
-66 36 -79 50 -5 6 -49 26 -65 30 -5 1 -19 9 -30 16 -11 8 -32 14 -47 14 -16
0 -28 5 -28 12 0 6 -2 9 -5 6 -3 -3 -31 1 -63 8 -31 8 -80 14 -109 14 -28 0
-55 5 -58 10 -8 14 -532 12 -541 -1 -3 -5 -71 -9 -152 -10 -81 0 -201 -4 -267
-9 -118 -8 -240 -15 -481 -26 l-121 -5 -5 28 c-3 15 -4 49 -3 76 2 26 -1 47
-6 47 -5 0 -9 7 -9 16 0 9 -15 37 -33 63 -33 45 -60 105 -51 114 2 2 -2 10
-11 17 -8 7 -15 19 -15 26 0 18 -128 212 -160 243 -25 23 -26 23 -185 17 -193
-9 -307 -19 -440 -41 -55 -9 -109 -17 -120 -18 -11 -1 -24 -5 -30 -8 -19 -12
-125 -21 -125 -11 0 6 7 12 15 16 8 3 15 12 15 21 0 9 9 26 20 38 11 12 18 27
16 33 -3 7 1 18 9 24 8 6 11 19 8 27 -4 10 -2 14 4 10 9 -6 56 93 56 120 0 7
6 13 14 13 7 0 13 5 13 11 0 5 -6 7 -12 3 -7 -4 -6 1 4 11 10 11 21 14 29 9
19 -11 49 -13 42 -2 -3 6 15 7 42 2 37 -5 46 -4 40 6 -5 9 -2 10 14 5 11 -3
21 -2 21 2 0 5 17 17 38 26 29 14 33 14 18 2 -11 -8 -16 -15 -10 -15 15 0 30
14 37 34 4 11 13 16 22 12 17 -6 78 50 116 109 82 126 94 175 90 353 -1 42
-16 58 -23 25 -2 -10 -4 5 -3 32 0 36 -6 57 -20 74 -64 76 -80 93 -105 108
-27 16 -29 21 -34 107 -4 50 -9 127 -12 171 -2 44 -9 150 -15 235 -6 85 -11
161 -11 168 -1 6 -4 12 -8 12 -3 0 -5 26 -5 58 1 31 -2 62 -6 67 -3 6 -9 25
-12 43 -8 45 -11 54 -25 79 -7 12 -12 30 -12 40 0 10 -7 31 -15 47 -8 15 -15
36 -15 45 0 10 -11 32 -25 51 -14 19 -25 38 -25 43 0 11 -69 127 -85 142 -51
50 -108 83 -89 53 4 -7 3 -8 -4 -4 -6 4 -8 14 -5 23 5 13 1 15 -23 9 -16 -4
-24 -3 -17 2 9 6 1 13 -25 25 -21 9 -57 36 -79 60 -50 53 -90 87 -102 87 -5 0
-11 6 -14 13 -6 15 -103 37 -180 42 -36 2 -56 9 -75 28 -43 40 -99 58 -205 64
-87 5 -101 9 -126 32 -52 48 -105 71 -164 71 -31 0 -59 -4 -62 -10z m485 -130
c37 -10 65 -43 54 -62 -4 -7 -3 -8 4 -4 8 5 12 -1 12 -18 0 -30 23 -54 58 -61
113 -23 156 -40 209 -81 39 -30 63 -42 75 -38 33 10 65 -21 70 -66 2 -22 0
-40 -4 -40 -5 0 -8 7 -8 15 0 18 -4 18 -47 6 -29 -9 -33 -7 -47 24 -9 18 -16
37 -16 42 0 4 -10 19 -21 33 -16 19 -19 20 -15 6 6 -17 5 -17 -11 -5 -15 12
-16 12 -10 -3 9 -26 4 -22 -23 15 -19 26 -20 29 -4 17 17 -14 18 -14 6 2 -8
10 -20 14 -29 11 -9 -4 -14 -2 -10 3 3 6 -4 11 -15 11 -18 2 -17 -2 13 -35
l34 -37 -37 34 c-21 19 -35 37 -33 41 2 4 -9 7 -25 8 -16 0 -41 9 -56 19 l-28
18 31 -45 c41 -60 96 -172 118 -240 10 -30 26 -66 35 -80 9 -14 20 -40 23 -57
5 -27 1 -39 -25 -69 -40 -46 -52 -30 -36 53 9 51 8 72 -8 139 -18 74 -19 77
-25 44 l-6 -35 -2 39 c0 21 -19 75 -41 124 l-40 85 -26 -24 -26 -24 7 48 c6
38 5 48 -6 47 -30 -5 -39 1 -56 33 -9 17 -18 38 -19 45 -5 31 -16 44 -46 57
-31 13 -31 14 -8 15 14 0 41 -4 60 -10z m-1390 -34 c0 -17 7 -27 23 -32 49
-15 50 -25 10 -68 l-38 -40 47 42 48 42 20 -20 c18 -18 19 -23 6 -43 -8 -12
-17 -42 -21 -67 -5 -32 -17 -56 -42 -83 -39 -44 -94 -69 -101 -47 -3 7 -11 -2
-20 -21 -14 -31 -16 -32 -19 -11 -5 28 12 83 42 140 13 23 22 42 20 42 -2 0
-16 -11 -31 -25 -32 -29 -37 -30 -58 -9 -15 14 -18 14 -37 -8 -15 -17 -19 -18
-15 -5 3 11 0 17 -9 17 -17 0 -22 -8 -29 -45 -8 -44 -29 -58 -23 -15 3 19 8
45 12 58 9 26 -6 29 -29 6 -22 -21 -20 -6 4 39 22 40 18 47 -13 20 -16 -14
-15 -11 4 15 38 53 133 118 194 133 49 12 55 10 55 -15z m678 -134 c-21 -29
-89 -110 -142 -168 -46 -51 -86 -70 -86 -41 0 6 -3 21 -6 32 -10 40 173 193
234 195 11 0 11 -3 0 -18z m330 -7 c7 -6 -182 -126 -268 -172 -134 -70 -142
-71 -85 -13 103 106 264 203 319 193 17 -3 32 -7 34 -8z m1114 -296 c31 -57
71 -144 88 -194 18 -49 34 -96 37 -104 4 -9 -5 -6 -22 7 -16 13 -42 22 -62 22
-22 0 -32 4 -27 11 4 8 -1 9 -15 4 -19 -6 -21 -4 -15 20 3 14 7 31 7 38 2 18
-14 139 -20 162 -6 18 -7 18 -14 -5 -7 -24 -7 -24 -8 5 -1 34 -24 113 -42 147
-12 22 -12 22 12 7 13 -9 50 -63 81 -120z m-998 32 c10 -16 -28 -39 -99 -61
-95 -29 -206 -66 -229 -75 -15 -6 -17 -5 -11 5 6 10 1 12 -26 7 -42 -8 -30 0
61 47 116 59 288 103 304 77z m94 -484 c97 -35 182 -87 233 -145 61 -69 73
-103 65 -190 l-6 -74 70 -101 c42 -61 73 -119 79 -145 l9 -43 -162 7 c-154 6
-221 14 -123 14 55 0 60 13 22 58 -36 43 -111 88 -180 108 -50 14 -86 16 -210
11 -130 -5 -286 -26 -335 -44 -8 -4 -19 -5 -24 -4 -4 1 -19 -5 -32 -14 -13 -8
-31 -15 -40 -15 -26 0 -12 -108 22 -166 14 -24 23 -45 20 -45 -3 -1 -10 -2
-15 -3 -5 0 -29 -24 -54 -51 -41 -46 -48 -50 -84 -47 -21 1 -60 -3 -88 -10
l-50 -14 -1 66 c0 50 -7 78 -30 125 -37 77 -57 87 -154 79 -139 -11 -202 -33
-224 -77 -15 -30 -16 -22 -16 145 0 97 5 201 11 230 22 103 67 160 158 201 40
18 46 18 56 4 10 -14 23 -15 83 -8 62 6 77 12 106 40 31 30 36 32 84 25 49 -6
51 -5 95 36 37 33 49 39 64 32 12 -7 40 -4 88 9 113 31 181 38 340 35 131 -3
159 -7 223 -29z m1128 -753 c49 -23 107 -82 134 -133 31 -61 24 -62 -13 -1
-21 37 -40 57 -57 60 -14 3 -47 16 -75 29 -68 31 -133 30 -192 -3 -25 -14 -47
-26 -49 -26 -2 0 -8 9 -14 21 -8 15 -8 24 0 34 8 10 7 15 -7 19 -10 3 -5 4 10
2 16 -2 50 3 75 10 58 17 139 11 188 -12z m-1181 -101 c60 -22 92 -40 84 -47
-3 -3 -24 4 -48 16 -27 13 -70 23 -116 26 -63 4 -80 1 -130 -22 -31 -14 -70
-40 -86 -57 -16 -18 -32 -29 -36 -25 -3 3 -13 0 -21 -6 -19 -17 12 59 36 85
41 45 82 58 177 53 52 -2 111 -12 140 -23z m-495 -51 l5 -47 50 -1 50 -1 7
-40 c4 -23 18 -63 32 -90 l25 -48 1 35 c0 46 50 130 89 153 25 15 31 15 31 4
0 -8 -11 -22 -24 -30 -13 -9 -26 -28 -30 -42 -8 -32 8 -96 32 -126 l19 -22 68
18 c100 27 155 82 155 156 0 27 2 30 15 19 28 -24 56 -79 61 -124 11 -86 -45
-164 -154 -213 -65 -30 -203 -56 -257 -48 -78 12 -96 24 -126 89 -16 34 -29
66 -29 73 0 7 -10 31 -23 55 -14 27 -28 80 -36 140 -12 89 -12 100 4 124 21
32 28 26 35 -34z m1732 -34 c56 -38 64 -63 55 -169 -4 -48 -14 -84 -33 -118
-24 -46 -32 -52 -106 -81 -85 -34 -114 -35 -210 -10 l-38 11 29 25 c16 13 51
62 76 108 28 50 57 88 71 95 42 19 33 39 -46 100 -32 25 -22 36 50 55 80 22
99 19 152 -16z m-870 -39 c32 -7 60 -24 92 -54 25 -23 43 -44 41 -47 -3 -3 2
-5 10 -5 8 0 12 4 9 9 -8 12 49 -13 66 -30 13 -13 13 -14 0 -6 -12 6 -13 5 -3
-7 10 -12 11 -99 1 -167 -2 -15 -79 -14 -89 0 -10 15 -53 18 -84 7 -98 -37
-139 -70 -151 -122 -4 -22 -33 -58 -91 -114 -84 -81 -85 -83 -78 -120 19 -101
-6 -170 -123 -343 -128 -190 -264 -300 -414 -335 -86 -20 -144 -19 -193 5 -56
27 -327 304 -388 397 -26 39 -61 101 -77 137 -27 59 -59 170 -60 204 0 15 27
16 32 0 5 -15 132 14 209 48 48 22 67 38 109 95 65 87 81 126 87 217 8 94 26
117 85 109 52 -7 64 -19 99 -96 33 -74 103 -152 164 -183 34 -18 51 -20 125
-15 157 10 293 61 363 136 55 59 72 105 72 202 0 73 1 77 25 86 28 11 93 7
162 -8z m-1617 -21 c9 -18 30 -73 47 -121 24 -70 29 -98 24 -135 -4 -26 -6
-61 -6 -79 0 -18 -5 -35 -10 -38 -6 -3 -10 -28 -10 -54 0 -40 -3 -50 -20 -54
-11 -3 -23 0 -27 5 -3 7 -1 8 5 4 22 -13 12 3 -20 36 -37 38 -68 92 -88 158
-8 25 -19 48 -24 52 -5 3 -9 30 -8 60 2 38 0 49 -8 38 -8 -12 -10 -11 -10 8 0
14 4 21 11 16 7 -4 7 1 -1 16 -8 15 -8 20 -1 16 6 -4 11 -1 12 6 0 9 101 95
116 98 1 0 9 -15 18 -32z m266 -37 c-11 -11 -24 -45 -31 -76 -14 -66 -1 -139
33 -181 17 -22 26 -25 55 -20 49 8 80 40 88 93 6 42 7 43 21 23 12 -17 12 -30
3 -74 -31 -150 -153 -246 -314 -246 l-59 0 7 93 c4 50 11 124 15 162 l7 70 9
-44 c6 -35 10 -40 17 -26 6 9 7 33 4 53 -3 20 -3 31 0 25 11 -25 23 -12 30 32
11 74 63 134 117 135 16 0 15 -2 -2 -19z m2564 -765 c31 -21 174 -239 195
-295 10 -28 27 -63 37 -78 35 -49 37 -59 9 -33 -26 24 -33 25 -151 25 -87 0
-128 4 -137 13 -20 20 1 43 60 65 l52 19 -24 19 c-13 10 -58 30 -101 44 -86
29 -104 28 -194 -13 -125 -57 -177 -104 -176 -157 1 -24 -44 -70 -122 -124
-32 -22 -111 -78 -175 -123 -65 -46 -157 -108 -205 -138 -48 -30 -143 -95
-211 -144 -148 -105 -208 -134 -305 -148 -60 -9 -78 -17 -110 -44 -20 -19 -34
-34 -31 -34 3 0 -2 -7 -10 -16 -9 -8 -23 -41 -32 -72 -9 -31 -31 -88 -50 -127
-29 -61 -84 -230 -84 -257 0 -21 24 0 37 33 l13 34 -6 -35 c-7 -40 -7 -35 -5
-80 1 -27 4 -31 11 -20 15 24 13 -20 -7 -103 -14 -60 -18 -68 -24 -47 -4 14
-7 18 -8 11 -2 -25 -54 -93 -61 -80 -9 14 -17 -31 -25 -141 -6 -80 18 -592 31
-672 l7 -38 59 0 59 0 -6 33 c-28 171 -45 718 -26 870 21 162 145 607 170 607
8 0 23 8 34 18 20 16 20 16 13 -3 -5 -11 -21 -74 -37 -140 -16 -66 -42 -163
-58 -215 -59 -192 -65 -232 -66 -435 0 -104 5 -226 12 -270 7 -44 12 -91 12
-105 l0 -25 -13 24 c-12 22 -13 19 -21 -40 -15 -121 -4 -329 16 -298 8 12 11
12 22 -2 10 -13 29 -16 102 -14 96 3 670 55 866 80 263 32 626 41 944 23 17
-1 101 4 188 10 174 14 218 8 256 -32 20 -21 23 -36 27 -142 2 -66 1 -113 -2
-106 -3 6 -11 12 -17 12 -5 0 -8 -3 -4 -6 3 -4 -5 -22 -20 -40 -27 -35 -38
-37 -96 -15 -44 17 -138 13 -312 -14 -88 -14 -194 -30 -235 -36 -41 -5 -86
-12 -100 -15 -59 -12 -612 -16 -815 -5 -277 14 -344 20 -375 36 -14 7 -41 16
-60 20 -19 4 -38 13 -42 19 -5 7 -8 6 -8 -4 0 -13 -110 -72 -195 -106 -11 -4
-101 -12 -200 -16 -245 -11 -247 -11 -256 3 -8 14 -84 38 -144 46 -22 2 -67
17 -100 33 -99 46 -131 52 -216 35 -119 -23 -238 -52 -320 -79 -42 -14 -95
-27 -118 -30 -23 -3 -45 -8 -51 -11 -11 -7 -102 4 -117 14 -6 3 -14 25 -18 48
l-7 42 31 -12 c30 -11 33 -10 104 60 67 66 76 72 127 78 30 4 134 27 230 50
96 24 214 46 262 50 l87 7 -4 27 c-39 233 -60 527 -50 681 14 204 72 408 197
681 58 127 86 176 136 236 35 42 68 85 73 95 6 11 17 17 25 14 8 -3 14 -2 14
2 0 4 13 21 28 37 15 17 24 27 21 22 -6 -8 9 -61 25 -86 13 -20 107 -8 203 27
75 28 83 34 223 174 140 140 281 251 414 327 29 17 82 61 119 99 89 93 189
180 262 229 68 46 140 84 147 78 9 -9 133 35 171 62 37 25 39 28 18 31 -13 2
-35 0 -50 -4 -14 -4 -30 -6 -35 -5 -19 5 -594 -87 -624 -99 -20 -9 -21 -8 -13
8 5 9 20 26 32 37 14 12 19 13 11 4 -11 -15 -4 -15 75 1 105 22 343 55 503 70
63 6 116 13 119 15 11 12 178 4 196 -9z m1935 -601 c213 -29 299 -64 473 -194
102 -76 221 -273 266 -441 30 -112 51 -274 51 -396 0 -161 -54 -613 -76 -633
-4 -3 -3 12 0 34 19 116 37 320 42 475 6 171 -6 316 -36 430 -9 31 -9 29 -6
-19 3 -52 3 -53 -11 -28 -22 43 -30 32 -32 -40 -1 -38 -5 -81 -10 -98 -5 -16
-12 -70 -16 -120 -3 -49 -8 -103 -11 -120 -3 -16 -6 -53 -8 -81 -2 -28 -6 -56
-10 -62 -4 -6 -9 -39 -12 -74 -3 -35 -14 -117 -25 -183 -12 -66 -27 -159 -34
-206 -8 -48 -18 -104 -24 -125 -5 -22 -13 -64 -16 -94 -4 -30 -13 -70 -21 -89
-8 -18 -14 -43 -14 -55 0 -20 -54 -238 -100 -401 -58 -207 -187 -582 -197
-572 -1 2 17 59 42 126 102 275 198 635 280 1046 82 413 117 713 117 1005 0
165 -17 388 -29 376 -3 -2 0 -44 6 -93 17 -141 13 -475 -9 -661 -10 -90 -21
-167 -25 -170 -6 -7 1 80 11 128 3 14 2 22 -2 17 -4 -4 -11 -29 -14 -55 -24
-162 -53 -330 -61 -347 -9 -21 -11 -30 -33 -167 -8 -47 -19 -103 -25 -125 -5
-21 -12 -58 -15 -83 -3 -25 -13 -70 -21 -100 -8 -30 -21 -82 -29 -115 -29
-129 -161 -544 -203 -641 -9 -21 -17 -43 -19 -49 -1 -8 -57 -138 -115 -270 -7
-16 -22 -40 -33 -53 -12 -13 -20 -26 -18 -28 5 -7 -51 -114 -60 -114 -4 0 -8
-6 -8 -13 0 -8 -9 -22 -20 -32 -11 -10 -20 -24 -20 -31 0 -7 -3 -14 -7 -16
-11 -4 -103 -115 -103 -123 0 -18 -215 -231 -253 -251 -15 -8 -33 -12 -40 -8
-45 28 -141 109 -139 118 2 6 23 31 47 56 107 110 162 196 211 327 13 37 28
75 31 83 3 8 6 18 5 22 -1 4 3 20 9 35 6 15 13 51 15 78 2 28 9 71 15 97 12
53 16 218 5 263 -4 17 -9 57 -11 90 -5 70 -37 225 -46 225 -3 0 -5 10 -4 23 1
12 -2 27 -7 33 -5 7 -10 20 -12 31 -2 10 -16 54 -31 98 -15 44 -28 85 -29 90
-2 6 -9 24 -15 40 -13 31 -20 57 -25 90 -2 11 -5 21 -6 23 -1 1 -3 5 -5 10 -1
4 -9 23 -17 42 -9 19 -14 38 -11 43 2 4 0 14 -6 21 -6 7 -13 29 -15 49 -3 20
-9 44 -15 54 -5 10 -10 23 -10 28 -4 27 -25 85 -31 85 -4 0 -6 10 -6 23 1 12
-1 27 -6 33 -4 6 -10 40 -12 76 -2 37 -9 75 -15 86 -7 14 -8 23 -1 27 6 4 7
13 1 23 -25 48 -37 322 -29 667 2 88 -7 231 -17 290 -7 39 -48 140 -64 159
-13 16 -13 18 -1 11 8 -4 6 1 -5 12 -11 10 -23 20 -27 21 -13 3 -45 37 -42 43
2 3 -2 6 -9 7 -41 5 -76 15 -73 21 2 3 -8 7 -22 7 -15 1 -47 5 -72 9 -57 9
-131 13 -246 14 -88 1 -91 2 -130 35 -55 47 -107 73 -187 92 -56 14 -68 21
-73 41 -4 14 -3 28 2 33 5 5 113 14 239 20 127 6 340 17 475 25 135 8 270 16
300 18 173 10 554 5 650 -8z m-2040 -115 c19 -6 10 -8 -35 -9 -181 -4 -276
-60 -344 -205 -62 -131 -91 -237 -116 -419 -4 -27 -9 -59 -11 -70 -5 -25 -23
-238 -24 -280 0 -19 -4 -26 -12 -21 -7 5 -9 2 -6 -7 5 -12 -1 -14 -22 -11 -15
2 -31 -1 -34 -7 -4 -5 -13 -8 -22 -4 -13 5 -12 8 3 27 15 18 16 19 1 7 -9 -7
-23 -9 -29 -5 -8 4 -9 3 -5 -4 4 -7 2 -12 -3 -12 -7 0 -12 72 -13 218 -1 119
-3 199 -5 177 -6 -80 -14 -125 -22 -125 -4 0 -16 16 -26 35 -11 19 -21 32 -23
30 -2 -2 -8 -37 -13 -77 -10 -90 -16 -119 -26 -129 -5 -5 -46 -17 -93 -28 -47
-10 -74 -20 -60 -21 49 -3 -237 -58 -460 -89 l-65 -9 71 -1 c68 -1 178 12 369
45 50 9 101 17 115 20 14 2 38 7 54 10 l30 7 -37 -37 c-20 -20 -37 -41 -37
-46 0 -4 -3 -15 -6 -24 -13 -34 14 -13 45 34 36 55 55 65 45 23 -11 -45 -33
-83 -49 -83 -9 0 -23 -13 -34 -30 -10 -16 -21 -27 -26 -22 -5 4 -5 2 -2 -5 4
-6 -11 -30 -33 -54 -34 -37 -42 -52 -42 -79 0 -3 -9 -14 -21 -25 -11 -11 -17
-14 -13 -7 4 7 -17 -3 -46 -22 -62 -39 -78 -43 -238 -57 -63 -5 -125 -11 -137
-12 -19 -2 -20 -4 -8 -17 13 -14 11 -16 -13 -15 -24 0 -27 -4 -30 -40 -5 -72
-16 -72 -23 0 -12 129 -9 357 6 427 7 37 39 147 69 245 30 98 59 194 64 213 6
19 11 26 11 16 1 -19 2 -19 24 1 37 33 103 44 422 69 78 6 213 35 246 54 20
11 29 4 30 -24 1 -12 5 1 9 27 13 76 39 148 79 222 35 65 40 70 131 121 90 50
162 81 240 102 42 12 165 13 200 2z m75 -205 c129 -43 287 -143 352 -222 52
-64 90 -118 75 -109 -20 12 -14 -19 27 -126 21 -57 46 -128 55 -158 40 -129
191 -419 248 -477 23 -23 44 -40 48 -38 3 2 12 -5 18 -16 12 -18 11 -19 -7
-10 -25 14 -137 14 -221 0 -97 -15 -169 -67 -176 -124 -5 -48 -44 -95 -114
-140 -80 -50 -382 -153 -474 -160 -41 -3 -48 0 -78 34 -19 20 -49 62 -67 94
-21 36 -37 55 -44 50 -9 -5 -9 -3 -1 8 6 8 14 39 18 69 8 57 8 249 0 261 -2 4
-6 22 -8 40 -7 47 -24 135 -36 178 -5 20 -14 73 -19 118 -6 47 -18 95 -28 110
-15 23 -18 50 -18 175 0 81 -1 145 -2 141 -2 -5 -7 -39 -12 -78 -8 -64 -8 -66
-9 -20 0 52 24 165 28 130 2 -17 3 -17 10 5 11 35 11 60 -1 35 -6 -15 -7 -11
-3 15 4 19 10 42 15 50 6 10 7 5 3 -15 -5 -23 0 -18 20 21 38 74 89 129 149
159 46 24 60 26 127 22 41 -3 98 -13 125 -22z m-2446 -212 l-24 -27 38 22 c45
26 53 27 60 8 4 -10 -15 -26 -61 -52 -93 -51 -94 -52 -74 -73 12 -13 22 -15
35 -9 9 5 17 6 17 2 0 -3 16 3 36 15 19 12 32 17 29 11 -3 -6 5 -10 19 -10 30
0 42 -16 26 -35 -7 -8 -10 -15 -6 -15 4 0 -2 -17 -12 -37 -10 -21 -25 -60 -32
-88 -7 -27 -27 -102 -45 -165 -96 -337 -105 -417 -93 -865 3 -138 3 -184 -2
-115 -4 63 -8 123 -9 133 0 10 -5 16 -10 13 -5 -3 -8 8 -7 24 1 17 -4 36 -11
42 -21 17 -16 41 7 35 18 -4 20 0 20 35 0 23 -4 37 -10 33 -6 -4 -10 14 -10
46 0 57 -8 60 -19 7 -5 -24 -16 -37 -41 -50 -19 -9 -39 -16 -45 -14 -6 1 -9
30 -7 69 2 37 1 85 -3 107 -6 35 -10 41 -28 38 -18 -2 -25 -15 -39 -78 -20
-90 -43 -154 -67 -189 -25 -36 -30 -53 -19 -74 7 -13 5 -24 -5 -35 -17 -19
-39 -92 -29 -92 4 0 -1 -5 -11 -11 -9 -6 -26 -8 -37 -5 -68 20 -67 20 -45 2
19 -16 15 -16 -65 -10 -47 3 -87 8 -89 10 -2 2 -12 49 -22 105 -18 96 -18 103
-2 115 16 11 16 13 -4 31 -15 12 -25 39 -33 86 -11 68 -11 69 21 125 56 100
401 614 464 691 33 41 84 99 113 129 28 30 52 59 52 63 0 4 8 10 18 13 10 4
31 20 47 36 36 37 47 40 14 3z m177 -225 c-35 -163 -96 -392 -91 -345 3 27 1
46 -4 42 -5 -3 -3 19 5 47 17 66 17 66 0 42 -27 -37 -30 -2 -7 84 13 48 27
106 32 130 11 54 26 82 44 82 12 0 11 -6 -2 -37 -23 -56 -43 -134 -42 -168 1
-25 3 -22 15 20 30 106 59 193 63 189 2 -2 -4 -41 -13 -86z m-714 -1303 c78
-35 92 -47 85 -77 -4 -14 -21 -40 -39 -58 -33 -32 -116 -86 -122 -79 -2 2 -11
49 -20 104 -9 55 -19 111 -22 124 -5 22 -3 23 30 17 19 -4 59 -17 88 -31z
m1281 -526 c158 -5 306 -7 330 -4 91 14 583 -35 633 -63 7 -4 -188 -8 -434 -9
-488 -3 -960 -19 -979 -34 -8 -7 -14 -5 -21 7 -8 15 -44 16 -382 17 -336 0
-374 -1 -385 -16 -7 -10 -25 -17 -40 -17 -26 0 -27 2 -23 40 2 22 -1 42 -7 44
-34 12 46 16 440 20 370 4 402 3 200 -4 -403 -15 -405 -17 -15 -12 206 2 379
8 385 13 5 5 -10 9 -37 9 -61 0 -138 11 -138 20 0 4 42 6 93 4 50 -2 221 -9
380 -15z m2812 -1264 c11 2 20 4 20 5 0 1 15 4 34 7 19 2 60 -3 90 -13 l56
-18 -60 -13 c-162 -35 -584 -138 -576 -141 5 -2 121 24 257 57 321 76 361 84
390 77 23 -6 74 -69 74 -93 0 -23 -67 -52 -203 -87 -137 -36 -156 -40 -255
-56 -29 -5 -56 -11 -60 -14 -4 -2 -46 -9 -92 -16 -47 -6 -114 -17 -150 -25
-36 -7 -105 -16 -154 -20 -49 -3 -92 -8 -96 -10 -4 -2 -22 -7 -41 -10 -59 -11
-101 -23 -234 -69 -71 -25 -143 -47 -160 -49 -16 -2 -37 -7 -45 -10 -13 -5
-128 -29 -275 -57 -27 -5 -77 -12 -110 -15 -33 -4 -68 -9 -78 -12 -41 -11
-431 -30 -577 -27 -170 3 -233 8 -330 30 -96 22 -138 43 -133 65 5 16 16 19
77 20 39 1 61 4 49 6 -13 2 -23 8 -23 13 0 11 104 44 225 70 109 24 355 103
364 118 3 5 60 17 126 27 66 9 275 48 465 85 324 65 618 118 860 156 115 18
467 33 515 22 17 -4 39 -6 50 -3z m-4276 -1150 c-11 -19 -18 -42 -15 -52 12
-39 -102 -217 -181 -282 -20 -17 -39 -28 -41 -26 -13 12 23 134 51 175 27 39
194 220 203 220 2 0 -6 -16 -17 -35z"/>
<path d="M6160 8419 c-88 -42 -180 -71 -202 -66 -25 7 -23 -6 8 -52 34 -53 88
-86 150 -95 49 -6 54 -4 92 28 27 22 56 36 86 40 64 10 96 38 96 85 0 50 -15
66 -78 79 -74 16 -79 16 -152 -19z"/>
<path d="M6599 8231 c-24 -16 -61 -45 -83 -64 -39 -36 -101 -57 -211 -73 -27
-4 -67 -13 -89 -20 -21 -8 -55 -14 -76 -14 -20 0 -59 -7 -86 -15 -69 -21 -89
-19 -126 14 -60 51 -98 62 -98 27 0 -19 44 -46 76 -46 14 0 40 -10 57 -22 23
-17 49 -23 112 -26 70 -4 99 1 215 32 166 46 230 71 331 132 78 47 92 67 67
92 -19 19 -40 14 -89 -17z"/>
<path d="M6285 7959 c-33 -10 -93 -24 -134 -31 l-75 -11 28 -23 c22 -20 38
-24 91 -24 78 0 166 30 195 67 37 47 -2 56 -105 22z"/>
<path d="M8453 6837 c-2 -19 -2 -19 14 -1 11 15 11 12 -2 -9 -12 -20 -13 -32
-6 -41 6 -7 8 -16 4 -19 -3 -4 0 -14 8 -24 9 -11 10 -14 2 -9 -14 8 -18 -6 -5
-18 4 -4 7 -11 8 -14 5 -43 18 -81 27 -75 6 4 7 1 2 -8 -12 -18 -14 -49 -3
-43 5 3 7 -6 4 -20 -3 -14 0 -26 5 -26 5 0 9 -13 9 -29 0 -17 6 -31 16 -35 9
-4 14 -13 10 -21 -3 -9 1 -18 10 -22 8 -3 13 -12 10 -19 -3 -7 -1 -16 5 -20 6
-3 8 -12 5 -19 -2 -7 11 -29 30 -49 34 -36 52 -47 38 -23 -6 9 -4 9 8 -1 9 -7
20 -12 24 -11 5 1 17 -1 26 -5 47 -21 70 13 44 65 -9 17 -13 36 -9 42 7 11 5
91 -3 130 -2 12 -17 43 -34 70 -16 26 -30 51 -30 55 0 4 -14 22 -31 40 -16 17
-28 32 -24 32 13 0 -80 123 -97 128 -10 2 -16 7 -13 11 2 4 -8 7 -24 7 -20 0
-27 -5 -28 -19z"/>
<path d="M3347 7424 c-8 -9 -42 -12 -207 -19 -91 -4 -178 -11 -195 -15 -16 -5
-145 -15 -285 -21 -140 -7 -273 -14 -295 -15 -83 -4 -144 -32 -146 -67 0 -7
-2 -21 -4 -32 -5 -24 14 -146 25 -160 4 -5 11 -35 15 -65 4 -30 9 -64 12 -75
2 -11 6 -33 9 -50 4 -32 34 -193 58 -315 43 -218 53 -276 49 -282 -2 -5 0 -8
4 -8 5 0 15 -42 23 -92 8 -51 14 -95 15 -98 1 -3 4 -12 7 -20 6 -15 27 -109
32 -145 2 -11 6 -27 9 -35 3 -8 8 -35 11 -60 3 -25 8 -56 12 -70 10 -40 35
-173 36 -195 1 -11 5 -24 9 -30 4 -5 10 -37 14 -70 4 -33 14 -77 21 -97 12
-36 22 -88 29 -153 2 -16 4 -30 5 -30 1 0 3 -7 5 -15 1 -8 8 -33 13 -55 6 -22
12 -57 14 -78 1 -21 6 -41 10 -43 5 -3 6 -9 3 -14 -19 -30 91 -200 130 -200 5
0 -4 12 -21 27 -48 44 -68 72 -70 101 -4 40 -11 68 -24 92 -6 12 -14 34 -16
48 -3 15 -16 84 -30 153 -13 70 -22 135 -18 145 5 16 4 16 -5 4 -9 -12 -11
-11 -11 8 0 13 4 21 9 18 5 -4 7 3 4 15 -4 16 -8 17 -14 7 -6 -9 -9 -4 -11 17
-4 66 -3 80 7 87 6 4 2 8 -9 8 -14 0 -16 3 -8 13 9 10 7 19 -5 37 -9 13 -11
20 -5 16 7 -4 8 2 2 24 -5 17 -7 41 -4 55 3 16 0 25 -8 25 -10 0 -10 2 1 9 9
6 10 11 2 15 -6 4 -8 13 -4 19 4 7 0 7 -10 -1 -14 -12 -16 -11 -12 9 3 13 -1
27 -8 31 -8 5 -6 8 7 8 15 0 16 3 6 15 -7 8 -9 15 -4 15 4 0 0 6 -9 13 -19 14
-37 74 -18 63 6 -4 11 -1 11 9 0 9 -5 13 -10 10 -15 -9 -24 23 -11 39 8 10 9
16 1 21 -7 4 -6 13 2 28 11 21 10 21 -7 7 -14 -11 -17 -11 -11 -1 5 8 3 17 -5
23 -11 8 -11 9 3 5 22 -7 30 3 16 20 -6 7 -8 16 -4 20 3 3 0 13 -8 22 -8 9
-16 20 -18 26 -2 5 -7 9 -13 7 -5 -2 -4 2 3 9 6 7 12 17 12 22 0 4 -6 5 -12 0
-8 -4 -6 4 4 18 11 18 13 30 6 40 -8 11 -9 10 -4 -4 3 -10 2 -15 -3 -12 -6 3
-9 14 -8 25 1 10 5 16 9 14 16 -10 2 35 -18 57 -19 22 -19 22 1 15 18 -7 18
-5 -2 14 -24 21 -31 36 -13 25 16 -10 12 11 -5 25 -10 8 -12 17 -5 29 5 10 5
23 0 31 -11 18 -2 33 13 23 7 -3 4 3 -6 15 -11 12 -16 26 -11 33 4 8 3 10 -4
5 -7 -4 -12 -2 -12 3 0 6 6 11 13 11 8 0 7 4 -3 10 -8 5 -11 10 -6 10 5 0 2 8
-7 18 -13 14 -14 21 -5 30 8 8 8 15 0 24 -7 9 -7 19 -2 28 6 10 4 23 -6 38 -8
12 -11 28 -7 35 13 21 13 42 -1 52 -13 10 -16 16 -16 36 0 5 -6 7 -12 3 -9 -5
-9 -2 1 9 7 9 9 17 4 17 -5 0 -10 12 -11 28 -2 31 -9 77 -12 77 -4 0 -17 92
-19 128 -1 10 -5 16 -10 13 -4 -3 -7 6 -5 19 1 14 -2 27 -7 31 -5 3 -9 13 -9
22 0 10 -9 25 -20 35 -29 24 -26 71 8 106 l27 29 375 26 c206 14 498 33 648
43 149 10 272 20 272 24 0 7 -225 10 -233 3z"/>
<path d="M7580 1937 c0 -17 44 -308 65 -432 16 -92 29 -144 40 -151 10 -7 15
-26 14 -55 -1 -25 -3 -33 -6 -19 -8 48 -12 55 -26 37 -8 -12 -33 -19 -82 -23
-61 -4 -133 -15 -200 -29 -11 -2 -26 -1 -33 4 -12 7 -49 194 -83 419 -6 40
-14 70 -17 68 -7 -7 19 -230 28 -236 3 -3 12 -59 19 -125 6 -65 16 -122 21
-125 6 -3 11 -18 12 -33 4 -41 39 -50 218 -51 139 -1 161 1 177 17 11 10 13
17 5 17 -8 0 -12 20 -12 60 0 40 -6 69 -17 86 -17 26 -21 45 -52 219 -9 55
-20 107 -23 115 -3 8 -11 62 -18 120 -6 58 -16 109 -21 115 -5 5 -9 6 -9 2z"/>
</g>
</svg>
