<?xml version="1.0" encoding="iso-8859-1"?>
<!-- Uploaded to: SVG Repo, www.svgrepo.com, Generator: SVG Repo Mixer Tools -->
<svg fill="#000000" height="800px" width="800px" version="1.1" id="Layer_1" xmlns="http://www.w3.org/2000/svg" xmlns:xlink="http://www.w3.org/1999/xlink" 
	 viewBox="0 0 496 496" xml:space="preserve">
<g>
	<g>
		<g>
			<path d="M376,248c0-70.576-57.424-128-128-128s-128,57.424-128,128s57.424,128,128,128S376,318.576,376,248z M220.032,139.68
				c-10.36,10.104-21.952,24.6-30.68,44.008c-11.128-3.36-19.536-7.056-25.04-9.856C178.88,157.408,198.152,145.336,220.032,139.68z
				 M154.36,186.728c5.992,3.264,15.832,7.88,29.224,12c-3.912,12.144-6.512,25.88-7.216,41.272h-39.96
				C137.8,220.44,144.176,202.248,154.36,186.728z M154.36,309.264c-10.192-15.52-16.56-33.704-17.952-53.272h39.96V256
				c0.704,15.392,3.304,29.128,7.216,41.264C170.192,301.384,160.352,306,154.36,309.264z M164.28,322.144
				c5.48-2.816,13.88-6.52,25.04-9.88c8.736,19.432,20.336,33.944,30.704,44.056C198.136,350.664,178.856,338.576,164.28,322.144z
				 M240,352.728c-10.104-8.112-24.528-22.48-34.96-44.424c10.16-2.104,21.816-3.656,34.96-4.12V352.728z M240,288.192
				c-15.488,0.512-29.152,2.408-40.896,5c-3.6-10.904-6.04-23.272-6.744-37.192H240V288.192z M240,240h-47.64
				c0.704-13.92,3.144-26.288,6.744-37.192c11.744,2.592,25.408,4.496,40.896,5V240z M240,191.808
				c-13.112-0.472-24.768-2.032-34.944-4.152c10.432-21.928,24.848-36.28,34.944-44.392V191.808z M341.64,309.272
				c-5.992-3.264-15.832-7.88-29.224-12c3.912-12.144,6.512-25.88,7.216-41.272h39.96C358.2,275.56,351.824,293.752,341.64,309.272z
				 M341.64,186.736c10.192,15.52,16.56,33.704,17.952,53.272h-39.96V240c-0.704-15.392-3.304-29.128-7.216-41.264
				C325.808,194.616,335.648,190,341.64,186.736z M331.72,173.856c-5.48,2.816-13.88,6.52-25.04,9.88
				c-8.736-19.432-20.336-33.944-30.704-44.056C297.864,145.336,317.144,157.424,331.72,173.856z M256,143.272
				c10.104,8.112,24.528,22.48,34.96,44.424c-10.16,2.104-21.816,3.656-34.96,4.12V143.272z M256,207.808
				c15.488-0.512,29.152-2.408,40.896-5c3.6,10.904,6.04,23.272,6.744,37.192H256V207.808z M256,256h47.64
				c-0.704,13.92-3.144,26.288-6.744,37.192c-11.744-2.592-25.408-4.496-40.896-5V256z M256,352.736v-48.544
				c13.112,0.472,24.768,2.032,34.944,4.152C280.512,330.272,266.096,344.624,256,352.736z M275.968,356.32
				c10.36-10.104,21.952-24.6,30.68-44.008c11.128,3.36,19.536,7.056,25.04,9.856C317.12,338.592,297.848,350.664,275.968,356.32z"
				/>
			<path d="M283.288,453.008l2.704,15.768c5.056-0.864,10.056-1.904,14.984-3.104l-3.784-15.544
				C292.624,451.24,287.984,452.2,283.288,453.008z"/>
			<path d="M165.744,456.36c4.76,1.88,9.608,3.616,14.416,5.144l4.84-15.248c-4.52-1.44-8.984-3.032-13.368-4.768L165.744,456.36z"
				/>
			<path d="M194.872,465.64c4.928,1.2,9.92,2.24,14.976,3.12l2.736-15.768c-4.696-0.816-9.328-1.776-13.896-2.896L194.872,465.64z"
				/>
			<path d="M255.04,455.88l0.528,15.984c5.136-0.168,10.208-0.512,15.248-1.016l-1.592-15.92
				C264.544,455.4,259.816,455.72,255.04,455.88z"/>
			<path d="M310.872,446.296l4.84,15.248c4.864-1.544,9.72-3.272,14.416-5.136l-5.888-14.872
				C319.856,443.272,315.4,444.856,310.872,446.296z"/>
			<path d="M225.016,470.832c5.048,0.512,10.136,0.864,15.264,1.032l0.528-15.984c-4.76-0.168-9.488-0.488-14.16-0.968
				L225.016,470.832z"/>
			<path d="M25.152,270.824l15.92-1.592c-0.472-4.68-0.792-9.416-0.952-14.184l-15.984,0.528
				C24.296,260.704,24.648,265.784,25.152,270.824z"/>
			<path d="M39.64,165.744c-1.88,4.76-3.616,9.608-5.144,14.416L49.744,185c1.44-4.52,3.032-8.984,4.768-13.368L39.64,165.744z"/>
			<path d="M45.872,297.192c-1.12-4.568-2.08-9.208-2.88-13.904l-15.768,2.704c0.864,5.056,1.904,10.056,3.104,14.984
				L45.872,297.192z"/>
			<path d="M54.464,324.24c-1.736-4.384-3.32-8.84-4.76-13.368l-15.248,4.84c1.544,4.864,3.272,9.72,5.136,14.416L54.464,324.24z"/>
			<path d="M24.136,240.28l15.984,0.528c0.168-4.76,0.488-9.488,0.968-14.16l-15.92-1.64
				C24.648,230.064,24.296,235.152,24.136,240.28z"/>
			<path d="M45.904,198.688l-15.544-3.816c-1.2,4.928-2.24,9.92-3.12,14.976l15.768,2.736
				C43.824,207.888,44.784,203.256,45.904,198.688z"/>
			<path d="M240.96,40.12l-0.528-15.984c-5.136,0.168-10.208,0.512-15.248,1.016l1.592,15.92
				C231.456,40.6,236.184,40.28,240.96,40.12z"/>
			<path d="M270.984,25.168c-5.048-0.512-10.136-0.864-15.264-1.032l-0.528,15.984c4.76,0.168,9.488,0.488,14.16,0.968
				L270.984,25.168z"/>
			<path d="M212.712,42.992l-2.704-15.768c-5.056,0.864-10.056,1.904-14.984,3.104l3.784,15.544
				C203.376,44.76,208.016,43.8,212.712,42.992z"/>
			<path d="M301.128,30.36c-4.928-1.2-9.92-2.24-14.976-3.12l-2.736,15.768c4.696,0.816,9.328,1.776,13.896,2.896L301.128,30.36z"/>
			<path d="M330.256,39.64c-4.76-1.88-9.608-3.616-14.416-5.144L311,49.744c4.52,1.44,8.984,3.032,13.368,4.768L330.256,39.64z"/>
			<path d="M185.128,49.704l-4.84-15.248c-4.872,1.544-9.728,3.272-14.424,5.128l5.888,14.872
				C176.144,52.728,180.6,51.144,185.128,49.704z"/>
			<path d="M456.36,330.256c1.88-4.76,3.616-9.608,5.144-14.416L446.256,311c-1.44,4.52-3.032,8.984-4.768,13.368L456.36,330.256z"
				/>
			<path d="M441.536,171.76c1.736,4.384,3.32,8.84,4.76,13.368l15.248-4.84c-1.544-4.864-3.272-9.72-5.136-14.416L441.536,171.76z"
				/>
			<path d="M468.776,210.008c-0.864-5.056-1.904-10.056-3.104-14.984l-15.544,3.784c1.12,4.568,2.08,9.208,2.88,13.904
				L468.776,210.008z"/>
			<path d="M468.76,286.152l-15.768-2.736c-0.816,4.696-1.776,9.328-2.896,13.896l15.544,3.816
				C466.84,296.192,467.88,291.2,468.76,286.152z"/>
			<path d="M470.848,225.176l-15.92,1.592c0.472,4.68,0.792,9.416,0.952,14.184l15.984-0.528
				C471.704,235.296,471.352,230.216,470.848,225.176z"/>
			<path d="M471.864,255.72l-15.984-0.528c-0.168,4.76-0.488,9.488-0.968,14.16l15.92,1.64
				C471.352,265.936,471.704,260.848,471.864,255.72z"/>
			<path d="M416,160c44.112,0,80-35.888,80-80S460.112,0,416,0s-80,35.888-80,80S371.888,160,416,160z M440,139.288
				c-7.416,3.016-15.512,4.712-24,4.712c-8.488,0-16.584-1.696-24-4.712V120c0-13.232,10.768-24,24-24s24,10.768,24,24V139.288z
				 M432,48c0,8.824-7.176,16-16,16c-8.824,0-16-7.176-16-16s7.176-16,16-16C424.824,32,432,39.176,432,48z M414.355,16.042
				C397.469,16.901,384,30.904,384,48c0,17.648,14.352,32,32,32s32-14.352,32-32c0-17.096-13.469-31.099-30.355-31.958
				C452.174,16.92,480,45.264,480,80c0,20.16-9.392,38.144-24,49.88V120c0-22.056-17.944-40-40-40c-22.056,0-40,17.944-40,40v9.88
				c-14.608-11.744-24-29.72-24-49.88C352,45.264,379.826,16.92,414.355,16.042z"/>
			<path d="M416,336c-44.112,0-80,35.888-80,80s35.888,80,80,80s80-35.888,80-80S460.112,336,416,336z M432,384
				c0,8.824-7.176,16-16,16c-8.824,0-16-7.176-16-16c0-8.824,7.176-16,16-16C424.824,368,432,375.176,432,384z M440,475.288
				c-7.416,3.016-15.512,4.712-24,4.712c-8.488,0-16.584-1.696-24-4.712V456c0-13.232,10.768-24,24-24s24,10.768,24,24V475.288z
				 M456,465.88V456c0-22.056-17.944-40-40-40c-22.056,0-40,17.944-40,40v9.88c-14.608-11.744-24-29.72-24-49.88
				c0-34.736,27.826-63.08,62.355-63.958C397.469,352.901,384,366.904,384,384c0,17.648,14.352,32,32,32s32-14.352,32-32
				c0-17.096-13.469-31.099-30.355-31.958C452.174,352.92,480,381.264,480,416C480,436.16,470.608,454.144,456,465.88z"/>
			<path d="M80,160c44.112,0,80-35.888,80-80S124.112,0,80,0S0,35.888,0,80S35.888,160,80,160z M104,139.288
				C96.584,142.304,88.488,144,80,144s-16.584-1.696-24-4.712V120c0-13.232,10.768-24,24-24s24,10.768,24,24V139.288z M96,48
				c0,8.824-7.176,16-16,16s-16-7.176-16-16s7.176-16,16-16S96,39.176,96,48z M78.355,16.042C61.469,16.901,48,30.904,48,48
				c0,17.648,14.352,32,32,32s32-14.352,32-32c0-17.096-13.469-31.099-30.355-31.958C116.174,16.92,144,45.264,144,80
				c0,20.16-9.392,38.144-24,49.88V120c0-22.056-17.944-40-40-40c-22.056,0-40,17.944-40,40v9.88C25.392,118.144,16,100.16,16,80
				C16,45.264,43.826,16.92,78.355,16.042z"/>
			<path d="M80,336c-44.112,0-80,35.888-80,80s35.888,80,80,80s80-35.888,80-80S124.112,336,80,336z M96,384c0,8.824-7.176,16-16,16
				s-16-7.176-16-16c0-8.824,7.176-16,16-16S96,375.176,96,384z M104,475.288C96.584,478.304,88.488,480,80,480
				s-16.584-1.696-24-4.712V456c0-13.232,10.768-24,24-24s24,10.768,24,24V475.288z M120,465.88V456c0-22.056-17.944-40-40-40
				c-22.056,0-40,17.944-40,40v9.88C25.392,454.144,16,436.16,16,416c0-34.736,27.826-63.08,62.355-63.958
				C61.469,352.901,48,366.904,48,384c0,17.648,14.352,32,32,32s32-14.352,32-32c0-17.096-13.469-31.099-30.355-31.958
				C116.174,352.92,144,381.264,144,416C144,436.16,134.608,454.144,120,465.88z"/>
		</g>
	</g>
</g>
</svg>